<svg xmlns="http://www.w3.org/2000/svg" xmlns:xlink="http://www.w3.org/1999/xlink" width="1080" zoomAndPan="magnify" viewBox="0 0 810 809.999993" height="1080" preserveAspectRatio="xMidYMid meet" version="1.0"><defs><g/></defs><path stroke-linecap="butt" transform="matrix(-0.000000000000000481, -2.993254, 3, -0.000000000000000482, 342.421186, 526.149426)" fill="none" stroke-linejoin="miter" d="M 0.000330086 0.000229576 L 52.118825 0.000229576 " stroke="#000000" stroke-width="1" stroke-opacity="1" stroke-miterlimit="4"/><g fill="#242424" fill-opacity="1"><g transform="translate(111.583185, 480.12202)"><g><path d="M 2.359375 17.101562 C 3.734375 17.101562 4.519531 16.90625 5.503906 16.316406 C 9.4375 15.136719 13.367188 14.152344 17.300781 13.367188 C 24.769531 12.382812 40.101562 10.027344 46.785156 6.683594 C 48.949219 5.699219 49.539062 3.929688 48.554688 2.554688 C 48.359375 1.964844 47.769531 1.574219 46.785156 1.574219 C 45.804688 1.574219 45.214844 1.769531 44.625 1.964844 C 38.53125 4.324219 32.4375 5.699219 25.949219 6.683594 C 25.554688 6.878906 24.964844 6.878906 24.375 6.878906 C 23 6.878906 22.410156 5.699219 23 3.144531 C 32.238281 -30.863281 42.855469 -63.296875 53.863281 -96.914062 C 54.84375 -100.058594 56.8125 -101.828125 59.957031 -102.417969 C 67.820312 -104.582031 75.683594 -106.546875 83.546875 -108.707031 C 85.707031 -109.296875 87.28125 -109.886719 89.050781 -110.871094 C 90.035156 -111.460938 90.621094 -112.246094 90.425781 -113.425781 C 90.425781 -114.410156 89.246094 -115.785156 88.460938 -115.589844 C 87.476562 -115.390625 86.691406 -115 86.101562 -114.800781 C 81.972656 -113.230469 77.648438 -111.855469 73.324219 -110.871094 C 68.800781 -109.886719 64.476562 -108.707031 60.152344 -107.527344 C 59.367188 -107.527344 58.382812 -107.726562 58.382812 -108.707031 C 58.1875 -110.085938 57.597656 -111.460938 56.222656 -111.65625 L 55.632812 -111.65625 C 55.042969 -111.65625 54.453125 -111.460938 54.058594 -110.871094 C 53.667969 -110.28125 53.273438 -109.886719 52.878906 -109.296875 L 52.289062 -108.117188 C 51.699219 -105.957031 50.128906 -104.777344 47.570312 -104.382812 C 42.066406 -103.203125 23.785156 -97.699219 20.835938 -92.785156 C 20.246094 -91.800781 20.445312 -91.015625 21.035156 -90.425781 C 21.425781 -89.835938 22.015625 -89.640625 22.804688 -89.640625 C 23.394531 -89.640625 23.984375 -89.835938 24.375 -90.230469 C 31.257812 -95.539062 39.121094 -96.914062 46.980469 -99.074219 L 47.570312 -99.074219 C 48.554688 -99.074219 48.75 -98.683594 48.554688 -97.699219 C 48.359375 -96.71875 48.160156 -95.929688 47.964844 -95.144531 C 47.769531 -94.359375 47.375 -93.570312 47.179688 -92.785156 C 44.820312 -85.707031 42.460938 -78.828125 40.296875 -71.949219 C 37.941406 -65.066406 35.582031 -58.1875 33.417969 -51.109375 C 30.46875 -42.265625 27.71875 -33.613281 25.554688 -24.769531 C 23.195312 -15.921875 20.640625 -6.878906 18.085938 1.964844 L 16.710938 6.289062 C 16.316406 7.667969 15.53125 8.453125 14.152344 8.847656 C 11.007812 9.4375 7.863281 10.222656 4.71875 11.203125 C 3.539062 11.597656 2.164062 12.1875 0.785156 13.171875 C 0 13.5625 -0.195312 14.351562 0 15.53125 C 0.589844 16.710938 1.375 17.300781 2.359375 17.101562 Z M 2.359375 17.101562 "/></g></g></g><g fill="#242424" fill-opacity="1"><g transform="translate(170.556438, 480.12202)"><g><path d="M 5.699219 1.179688 C 13.761719 1.179688 24.964844 -19.65625 27.324219 -26.929688 L 29.09375 -31.847656 C 29.683594 -33.8125 31.058594 -34.992188 33.222656 -35.382812 C 33.8125 -35.582031 34.597656 -35.582031 35.382812 -35.777344 C 36.171875 -35.972656 36.957031 -35.972656 37.546875 -36.171875 L 53.273438 -39.511719 C 54.253906 -39.511719 55.042969 -39.710938 55.632812 -40.101562 C 56.417969 -40.496094 56.8125 -41.28125 56.8125 -42.265625 C 56.8125 -43.050781 56.417969 -43.835938 55.433594 -44.425781 C 54.84375 -44.625 54.453125 -44.820312 54.058594 -44.820312 C 53.46875 -44.820312 52.683594 -44.625 51.699219 -44.425781 C 46.394531 -43.050781 41.28125 -41.871094 35.972656 -41.28125 C 29.09375 -40.496094 24.964844 -37.742188 23.195312 -30.863281 C 21.820312 -24.574219 14.742188 -12.1875 10.027344 -7.46875 C 9.632812 -6.878906 9.238281 -6.488281 9.042969 -6.09375 C 8.648438 -5.503906 8.058594 -5.308594 7.46875 -5.308594 C 7.078125 -5.308594 6.683594 -5.308594 6.488281 -5.503906 C 5.109375 -6.09375 5.308594 -7.46875 5.308594 -8.847656 C 5.308594 -21.625 8.453125 -35.972656 13.367188 -47.769531 C 13.957031 -49.144531 14.351562 -50.128906 14.152344 -51.503906 C 13.957031 -52.09375 13.5625 -52.683594 12.972656 -52.878906 C 12.777344 -53.078125 12.382812 -53.273438 11.792969 -53.273438 C 11.203125 -53.273438 10.8125 -53.078125 10.617188 -52.878906 C 10.027344 -52.289062 9.4375 -51.699219 9.238281 -50.914062 C 3.734375 -38.136719 1.375 -24.769531 0 -10.617188 C 0.195312 -9.632812 0.195312 -8.453125 0.394531 -7.46875 C 0.394531 -6.289062 0.589844 -5.109375 0.785156 -3.929688 C 1.574219 -0.589844 3.144531 1.179688 5.699219 1.179688 Z M 5.699219 1.179688 "/></g></g></g><g fill="#242424" fill-opacity="1"><g transform="translate(217.538459, 480.12202)"><g><path d="M -0.589844 3.34375 C 0.589844 3.34375 1.574219 2.753906 2.164062 1.769531 C 3.539062 -0.394531 4.71875 -2.164062 5.699219 -4.324219 C 7.46875 -7.667969 9.042969 -10.8125 10.617188 -13.957031 C 11.992188 -17.101562 13.5625 -20.246094 15.136719 -23.394531 C 17.496094 -27.914062 20.246094 -32.238281 23.984375 -35.972656 C 24.769531 -36.957031 25.554688 -37.941406 27.324219 -37.941406 C 27.914062 -37.152344 28.308594 -36.367188 28.699219 -35.582031 C 29.09375 -34.792969 29.683594 -34.007812 30.273438 -33.222656 C 32.4375 -30.273438 34.992188 -28.898438 38.332031 -28.898438 C 43.835938 -28.898438 52.09375 -35.382812 55.828125 -39.121094 C 56.417969 -39.710938 57.007812 -40.496094 57.597656 -41.675781 C 57.992188 -42.460938 57.792969 -43.246094 57.007812 -44.035156 C 56.417969 -44.425781 56.023438 -44.625 55.433594 -44.625 C 55.042969 -44.625 54.84375 -44.625 54.648438 -44.425781 C 53.667969 -43.835938 52.878906 -43.246094 52.09375 -42.460938 C 48.75 -39.710938 41.871094 -34.007812 38.332031 -34.007812 C 36.5625 -34.007812 34.992188 -35.1875 33.613281 -37.546875 C 33.222656 -38.136719 32.828125 -38.921875 32.632812 -39.90625 C 32.238281 -40.691406 31.847656 -41.476562 31.453125 -42.066406 C 30.46875 -43.640625 29.289062 -44.425781 27.71875 -44.425781 C 26.929688 -44.425781 26.144531 -44.230469 25.359375 -43.835938 C 19.265625 -40.101562 14.546875 -33.417969 11.402344 -27.324219 L 3.734375 -11.792969 L 3.539062 -11.992188 L 3.734375 -11.992188 C 2.753906 -14.152344 3.34375 -16.121094 3.929688 -18.28125 C 5.503906 -24.179688 7.667969 -30.273438 10.222656 -36.367188 C 11.992188 -40.296875 13.761719 -44.230469 15.332031 -48.160156 C 15.921875 -49.734375 16.316406 -51.109375 16.316406 -52.488281 C 16.511719 -53.46875 16.121094 -54.058594 14.941406 -54.453125 L 14.351562 -54.453125 C 13.5625 -54.453125 12.972656 -54.253906 12.582031 -53.863281 C 11.992188 -53.078125 11.597656 -52.09375 11.007812 -51.109375 C 4.128906 -35.382812 -1.375 -22.410156 -3.929688 -4.914062 C -4.128906 -3.929688 -4.128906 -3.144531 -4.128906 -2.359375 C -3.929688 -1.375 -3.929688 -0.589844 -3.929688 0.195312 C -3.734375 1.769531 -2.949219 2.753906 -1.574219 3.144531 C -1.375 3.144531 -1.179688 3.144531 -1.179688 3.34375 C -0.984375 3.34375 -0.785156 3.34375 -0.589844 3.34375 Z M -0.589844 3.34375 "/></g></g></g><g fill="#242424" fill-opacity="1"><g transform="translate(265.503338, 480.12202)"><g><path d="M 9.238281 -8.257812 C 22.804688 -8.257812 43.445312 -28.308594 52.878906 -38.332031 C 53.667969 -39.121094 54.253906 -39.710938 54.453125 -40.296875 C 55.042969 -41.28125 54.84375 -42.265625 53.863281 -43.246094 C 53.46875 -43.640625 53.078125 -43.835938 52.488281 -43.835938 C 52.09375 -43.835938 51.503906 -43.640625 50.914062 -43.246094 C 50.324219 -42.65625 49.734375 -42.066406 49.144531 -41.476562 C 48.554688 -40.886719 47.769531 -40.296875 47.179688 -39.710938 C 44.820312 -37.546875 42.460938 -35.382812 40.296875 -33.222656 C 37.941406 -31.058594 35.582031 -28.699219 33.222656 -26.539062 C 27.519531 -21.230469 18.476562 -14.941406 10.617188 -13.367188 C 6.878906 -13.367188 4.71875 -13.367188 3.929688 -17.890625 C 2.949219 -20.445312 2.753906 -22.605469 3.34375 -24.769531 C 3.539062 -25.75 4.128906 -26.339844 4.914062 -26.539062 C 14.351562 -27.519531 26.734375 -39.121094 28.308594 -48.75 C 28.898438 -53.273438 26.339844 -56.023438 22.410156 -56.023438 C 22.214844 -56.023438 21.820312 -56.023438 21.625 -56.023438 C 21.425781 -55.828125 21.035156 -55.828125 20.835938 -55.828125 C 10.417969 -54.253906 2.753906 -40.496094 -0.589844 -31.257812 C -1.375 -28.308594 -2.164062 -25.554688 -1.964844 -22.214844 C -2.164062 -20.050781 -1.574219 -17.691406 -0.785156 -15.53125 C 0.589844 -10.617188 3.929688 -8.257812 9.238281 -8.257812 Z M 7.46875 -32.4375 C 7.273438 -32.238281 6.878906 -32.4375 6.289062 -32.632812 C 6.09375 -32.632812 5.898438 -33.023438 5.898438 -33.613281 C 8.058594 -39.710938 14.742188 -49.539062 21.230469 -50.519531 C 22.214844 -50.71875 22.804688 -50.324219 23 -48.949219 C 23 -42.65625 12.582031 -35.1875 7.46875 -32.4375 Z M 7.46875 -32.4375 "/></g></g></g><g fill="#242424" fill-opacity="1"><g transform="translate(360.428453, 425.883925)"><g><path d="M 6.375 -22.984375 C 6.375 -24.160156 6.285156 -25.03125 6.109375 -25.59375 C 5.929688 -26.15625 5.671875 -26.546875 5.328125 -26.765625 C 4.984375 -26.984375 4.421875 -27.195312 3.640625 -27.40625 C 3.535156 -27.4375 3.269531 -27.515625 2.84375 -27.640625 C 2.414062 -27.765625 1.976562 -27.914062 1.53125 -28.09375 L 1.578125 -29.25 L 14.328125 -29.25 C 16.753906 -29.25 18.890625 -29.109375 20.734375 -28.828125 C 22.585938 -28.546875 24.203125 -27.863281 25.578125 -26.78125 C 26.960938 -25.707031 27.65625 -24.082031 27.65625 -21.90625 C 27.65625 -18.226562 24.953125 -15.9375 19.546875 -15.03125 C 21.097656 -14.957031 22.601562 -14.660156 24.0625 -14.140625 C 25.519531 -13.617188 26.726562 -12.832031 27.6875 -11.78125 C 28.644531 -10.726562 29.125 -9.414062 29.125 -7.84375 C 29.125 -5.96875 28.546875 -4.441406 27.390625 -3.265625 C 26.242188 -2.085938 24.804688 -1.25 23.078125 -0.75 C 21.359375 -0.25 19.582031 0 17.75 0 L 1.578125 0 L 1.53125 -1.171875 L 2.34375 -1.390625 C 3.207031 -1.617188 3.90625 -1.847656 4.4375 -2.078125 C 4.976562 -2.304688 5.4375 -2.648438 5.8125 -3.109375 C 6.1875 -3.566406 6.375 -4.1875 6.375 -4.96875 Z M 11.203125 -16.390625 C 11.410156 -16.203125 11.6875 -16.039062 12.03125 -15.90625 C 12.382812 -15.78125 12.707031 -15.71875 13 -15.71875 L 16 -15.71875 C 20.789062 -15.71875 23.1875 -17.539062 23.1875 -21.1875 C 23.1875 -23.113281 22.640625 -24.546875 21.546875 -25.484375 C 20.460938 -26.421875 19.175781 -27 17.6875 -27.21875 C 16.207031 -27.445312 14.390625 -27.5625 12.234375 -27.5625 L 11.203125 -27.5625 Z M 11.203125 -6.15625 C 11.203125 -5.101562 11.382812 -4.140625 11.75 -3.265625 C 12.125 -2.390625 12.765625 -1.953125 13.671875 -1.953125 L 17.3125 -1.953125 C 18.46875 -1.953125 19.515625 -2.171875 20.453125 -2.609375 C 21.390625 -3.054688 22.132812 -3.703125 22.6875 -4.546875 C 23.238281 -5.390625 23.515625 -6.390625 23.515625 -7.546875 C 23.515625 -9.554688 22.914062 -11.039062 21.71875 -12 C 20.519531 -12.96875 19.125 -13.566406 17.53125 -13.796875 C 15.9375 -14.035156 14.015625 -14.15625 11.765625 -14.15625 C 11.515625 -13.925781 11.359375 -13.65625 11.296875 -13.34375 C 11.234375 -13.039062 11.203125 -12.648438 11.203125 -12.171875 Z M 11.203125 -6.15625 "/></g></g></g><g fill="#242424" fill-opacity="1"><g transform="translate(406.736659, 425.883925)"><g><path d="M 8.890625 -11.953125 L 8.46875 -10.875 C 7.789062 -9.125 7.257812 -7.679688 6.875 -6.546875 C 6.488281 -5.421875 6.296875 -4.550781 6.296875 -3.9375 C 6.296875 -3.394531 6.492188 -2.953125 6.890625 -2.609375 C 7.285156 -2.265625 7.738281 -2.007812 8.25 -1.84375 C 8.769531 -1.675781 9.40625 -1.519531 10.15625 -1.375 L 10.578125 -1.28125 L 10.578125 0 L -0.015625 0 L -0.015625 -1.171875 C 0.191406 -1.335938 0.398438 -1.472656 0.609375 -1.578125 C 0.828125 -1.691406 1.101562 -1.816406 1.4375 -1.953125 C 1.957031 -2.160156 2.378906 -2.375 2.703125 -2.59375 C 3.023438 -2.820312 3.316406 -3.175781 3.578125 -3.65625 C 3.722656 -3.957031 3.875 -4.296875 4.03125 -4.671875 C 4.1875 -5.054688 4.285156 -5.3125 4.328125 -5.4375 L 4.609375 -6.125 L 13 -27.65625 C 13.0625 -27.8125 13.109375 -28.09375 13.140625 -28.5 C 13.148438 -28.800781 13.175781 -29.046875 13.21875 -29.234375 C 13.257812 -29.421875 13.332031 -29.585938 13.4375 -29.734375 C 14.164062 -29.734375 14.796875 -29.660156 15.328125 -29.515625 C 15.859375 -29.367188 16.394531 -29.09375 16.9375 -28.6875 L 27.25 -3.953125 C 27.4375 -3.484375 27.65625 -3.109375 27.90625 -2.828125 C 28.164062 -2.554688 28.429688 -2.347656 28.703125 -2.203125 C 28.984375 -2.066406 29.363281 -1.898438 29.84375 -1.703125 C 30.25 -1.566406 30.675781 -1.390625 31.125 -1.171875 L 31.09375 0 L 18.015625 0 L 17.96875 -1.171875 C 18.675781 -1.378906 19.28125 -1.585938 19.78125 -1.796875 C 20.28125 -2.003906 20.734375 -2.296875 21.140625 -2.671875 C 21.546875 -3.046875 21.75 -3.503906 21.75 -4.046875 C 21.75 -4.640625 21 -6.863281 19.5 -10.71875 C 19.40625 -10.9375 19.316406 -11.148438 19.234375 -11.359375 C 19.148438 -11.578125 19.082031 -11.773438 19.03125 -11.953125 Z M 13.765625 -24.984375 L 9.65625 -13.921875 L 18.1875 -13.921875 Z M 13.765625 -24.984375 "/></g></g></g><g fill="#242424" fill-opacity="1"><g transform="translate(452.820274, 425.883925)"><g><path d="M 15.609375 -12.171875 C 15.253906 -12.710938 14.953125 -13.109375 14.703125 -13.359375 C 14.453125 -13.617188 14.15625 -13.816406 13.8125 -13.953125 C 13.46875 -14.085938 13 -14.171875 12.40625 -14.203125 L 10.984375 -14.28125 L 10.984375 -5.640625 C 10.984375 -4.554688 11.078125 -3.757812 11.265625 -3.25 C 11.453125 -2.75 11.707031 -2.414062 12.03125 -2.25 C 12.351562 -2.082031 12.835938 -1.945312 13.484375 -1.84375 C 13.941406 -1.769531 14.347656 -1.6875 14.703125 -1.59375 C 15.066406 -1.5 15.441406 -1.359375 15.828125 -1.171875 L 15.796875 0 L 1.578125 0 L 1.53125 -1.171875 C 1.9375 -1.390625 2.3125 -1.546875 2.65625 -1.640625 C 3.007812 -1.742188 3.421875 -1.832031 3.890625 -1.90625 C 4.484375 -2 4.925781 -2.128906 5.21875 -2.296875 C 5.507812 -2.472656 5.738281 -2.851562 5.90625 -3.4375 C 6.070312 -4.019531 6.15625 -4.945312 6.15625 -6.21875 L 6.15625 -23.25 C 6.15625 -24.3125 6.0625 -25.109375 5.875 -25.640625 C 5.695312 -26.171875 5.441406 -26.535156 5.109375 -26.734375 C 4.773438 -26.941406 4.25 -27.15625 3.53125 -27.375 C 2.757812 -27.582031 2.09375 -27.816406 1.53125 -28.078125 L 1.578125 -29.25 L 11.921875 -29.25 C 14.722656 -29.25 17.171875 -29.117188 19.265625 -28.859375 C 21.367188 -28.609375 23.242188 -27.9375 24.890625 -26.84375 C 26.546875 -25.75 27.375 -24.0625 27.375 -21.78125 C 27.375 -20.375 26.976562 -19.15625 26.1875 -18.125 C 25.40625 -17.101562 24.394531 -16.300781 23.15625 -15.71875 C 21.925781 -15.132812 20.609375 -14.738281 19.203125 -14.53125 C 19.378906 -14.289062 20.269531 -13.046875 21.875 -10.796875 C 23.0625 -9.117188 24.066406 -7.71875 24.890625 -6.59375 C 25.722656 -5.476562 26.550781 -4.425781 27.375 -3.4375 C 27.875 -2.914062 28.316406 -2.503906 28.703125 -2.203125 C 29.097656 -1.898438 29.585938 -1.660156 30.171875 -1.484375 C 30.753906 -1.304688 31.484375 -1.21875 32.359375 -1.21875 L 32.359375 0.046875 C 30.878906 0.398438 29.5625 0.578125 28.40625 0.578125 C 26.820312 0.578125 25.367188 0.09375 24.046875 -0.875 C 22.722656 -1.851562 21.578125 -3.003906 20.609375 -4.328125 C 19.640625 -5.660156 18.535156 -7.363281 17.296875 -9.4375 C 16.554688 -10.695312 15.992188 -11.609375 15.609375 -12.171875 Z M 12.109375 -15.796875 C 14.023438 -15.796875 15.675781 -15.90625 17.0625 -16.125 C 18.457031 -16.351562 19.648438 -16.882812 20.640625 -17.71875 C 21.640625 -18.5625 22.140625 -19.828125 22.140625 -21.515625 C 22.140625 -23.367188 21.601562 -24.738281 20.53125 -25.625 C 19.46875 -26.507812 18.21875 -27.050781 16.78125 -27.25 C 15.34375 -27.457031 13.578125 -27.5625 11.484375 -27.5625 L 10.984375 -27.5625 L 10.984375 -15.796875 Z M 12.109375 -15.796875 "/></g></g></g><g fill="#242424" fill-opacity="1"><g transform="translate(360.428453, 488.568547)"><g><path d="M 27.40625 -20.234375 C 27.21875 -20.421875 27.015625 -20.679688 26.796875 -21.015625 C 26.578125 -21.359375 26.367188 -21.707031 26.171875 -22.0625 C 26.128906 -22.132812 26.015625 -22.328125 25.828125 -22.640625 C 25.640625 -22.960938 25.46875 -23.238281 25.3125 -23.46875 C 25.15625 -23.695312 25.003906 -23.882812 24.859375 -24.03125 C 23.898438 -24.988281 22.835938 -25.703125 21.671875 -26.171875 C 20.503906 -26.648438 19.273438 -26.890625 17.984375 -26.890625 C 16.117188 -26.890625 14.378906 -26.40625 12.765625 -25.4375 C 11.148438 -24.46875 9.859375 -23.054688 8.890625 -21.203125 C 7.921875 -19.359375 7.4375 -17.164062 7.4375 -14.625 C 7.4375 -12.03125 7.90625 -9.757812 8.84375 -7.8125 C 9.789062 -5.875 11.125 -4.375 12.84375 -3.3125 C 14.570312 -2.257812 16.585938 -1.734375 18.890625 -1.734375 C 20.835938 -1.734375 22.566406 -2.140625 24.078125 -2.953125 C 25.585938 -3.765625 26.757812 -4.957031 27.59375 -6.53125 L 28.640625 -6.390625 L 28.453125 -2.328125 C 26.890625 -1.453125 25.085938 -0.75 23.046875 -0.21875 C 21.003906 0.300781 19.097656 0.5625 17.328125 0.5625 C 14.523438 0.5625 11.988281 -0.015625 9.71875 -1.171875 C 7.457031 -2.335938 5.671875 -4.003906 4.359375 -6.171875 C 3.054688 -8.335938 2.40625 -10.867188 2.40625 -13.765625 C 2.40625 -16.503906 3.070312 -19 4.40625 -21.25 C 5.738281 -23.5 7.628906 -25.273438 10.078125 -26.578125 C 12.535156 -27.890625 15.367188 -28.546875 18.578125 -28.546875 C 21.515625 -28.546875 24.5 -27.957031 27.53125 -26.78125 L 28.40625 -20.28125 Z M 27.40625 -20.234375 "/></g></g></g><g fill="#242424" fill-opacity="1"><g transform="translate(405.629254, 488.568547)"><g><path d="M 8.515625 -11.4375 L 8.109375 -10.40625 C 7.460938 -8.726562 6.953125 -7.347656 6.578125 -6.265625 C 6.203125 -5.179688 6.015625 -4.347656 6.015625 -3.765625 C 6.015625 -3.242188 6.203125 -2.816406 6.578125 -2.484375 C 6.960938 -2.160156 7.398438 -1.921875 7.890625 -1.765625 C 8.390625 -1.609375 9 -1.457031 9.71875 -1.3125 L 10.125 -1.21875 L 10.125 0 L -0.015625 0 L -0.015625 -1.125 C 0.179688 -1.28125 0.382812 -1.410156 0.59375 -1.515625 C 0.800781 -1.617188 1.0625 -1.738281 1.375 -1.875 C 1.875 -2.070312 2.273438 -2.273438 2.578125 -2.484375 C 2.890625 -2.703125 3.171875 -3.039062 3.421875 -3.5 C 3.566406 -3.789062 3.710938 -4.117188 3.859375 -4.484375 C 4.015625 -4.847656 4.113281 -5.085938 4.15625 -5.203125 L 4.40625 -5.875 L 12.453125 -26.46875 C 12.503906 -26.632812 12.546875 -26.910156 12.578125 -27.296875 C 12.597656 -27.578125 12.625 -27.804688 12.65625 -27.984375 C 12.6875 -28.171875 12.753906 -28.332031 12.859375 -28.46875 C 13.566406 -28.46875 14.171875 -28.394531 14.671875 -28.25 C 15.179688 -28.113281 15.695312 -27.851562 16.21875 -27.46875 L 26.09375 -3.78125 C 26.28125 -3.34375 26.492188 -2.988281 26.734375 -2.71875 C 26.972656 -2.457031 27.222656 -2.257812 27.484375 -2.125 C 27.753906 -1.988281 28.117188 -1.828125 28.578125 -1.640625 C 28.960938 -1.503906 29.375 -1.332031 29.8125 -1.125 L 29.765625 0 L 17.25 0 L 17.203125 -1.125 C 17.878906 -1.320312 18.457031 -1.519531 18.9375 -1.71875 C 19.414062 -1.914062 19.847656 -2.191406 20.234375 -2.546875 C 20.617188 -2.910156 20.8125 -3.351562 20.8125 -3.875 C 20.8125 -4.445312 20.097656 -6.578125 18.671875 -10.265625 C 18.585938 -10.472656 18.503906 -10.675781 18.421875 -10.875 C 18.335938 -11.082031 18.269531 -11.269531 18.21875 -11.4375 Z M 13.1875 -23.921875 L 9.25 -13.328125 L 17.421875 -13.328125 Z M 13.1875 -23.921875 "/></g></g></g><g fill="#242424" fill-opacity="1"><g transform="translate(449.754883, 488.568547)"><g><path d="M 9.46875 -26.40625 C 8.144531 -26.40625 7.097656 -26.347656 6.328125 -26.234375 C 5.828125 -26.160156 5.367188 -25.957031 4.953125 -25.625 C 4.546875 -25.300781 4.195312 -24.929688 3.90625 -24.515625 C 3.613281 -24.097656 3.257812 -23.539062 2.84375 -22.84375 C 2.40625 -22.082031 2.03125 -21.507812 1.71875 -21.125 L 0.734375 -21.125 L 1.265625 -28.125 C 3.628906 -28.03125 6.6875 -27.984375 10.4375 -27.984375 L 18.8125 -28 L 21.640625 -28 C 24.535156 -28 26.878906 -28.054688 28.671875 -28.171875 L 29.359375 -21.09375 L 28.328125 -21.09375 C 28.109375 -21.351562 27.882812 -21.679688 27.65625 -22.078125 C 27.425781 -22.472656 27.273438 -22.726562 27.203125 -22.84375 C 26.628906 -23.863281 26.09375 -24.660156 25.59375 -25.234375 C 25.101562 -25.804688 24.519531 -26.140625 23.84375 -26.234375 C 23.363281 -26.304688 22.875 -26.351562 22.375 -26.375 C 21.882812 -26.394531 21.265625 -26.40625 20.515625 -26.40625 L 17.234375 -26.40625 L 17.234375 -5.1875 C 17.234375 -4.082031 17.421875 -3.257812 17.796875 -2.71875 C 18.179688 -2.1875 18.679688 -1.828125 19.296875 -1.640625 C 19.921875 -1.453125 20.851562 -1.28125 22.09375 -1.125 C 22.09375 -0.613281 22.078125 -0.238281 22.046875 0 L 7.8125 0 L 7.765625 -1.125 C 8.003906 -1.207031 8.382812 -1.320312 8.90625 -1.46875 C 9.75 -1.71875 10.414062 -1.957031 10.90625 -2.1875 C 11.394531 -2.414062 11.800781 -2.765625 12.125 -3.234375 C 12.445312 -3.710938 12.609375 -4.363281 12.609375 -5.1875 L 12.609375 -26.40625 Z M 9.46875 -26.40625 "/></g></g></g><g fill="#242424" fill-opacity="1"><g transform="translate(494.289072, 488.568547)"><g><path d="M 26.734375 0.1875 C 26.503906 0.238281 26.273438 0.265625 26.046875 0.265625 C 25.773438 0.265625 25.363281 0.21875 24.8125 0.125 C 24.269531 0.0390625 23.859375 0 23.578125 0 L 1.5 0 L 1.46875 -1.046875 C 1.90625 -1.296875 2.3125 -1.472656 2.6875 -1.578125 C 3.070312 -1.679688 3.492188 -1.769531 3.953125 -1.84375 C 4.523438 -1.945312 4.941406 -2.078125 5.203125 -2.234375 C 5.472656 -2.390625 5.679688 -2.726562 5.828125 -3.25 C 5.972656 -3.78125 6.046875 -4.613281 6.046875 -5.75 L 6.046875 -22.03125 C 6.046875 -23.144531 5.953125 -23.96875 5.765625 -24.5 C 5.585938 -25.03125 5.328125 -25.398438 4.984375 -25.609375 C 4.640625 -25.816406 4.066406 -26.039062 3.265625 -26.28125 C 3.140625 -26.320312 2.894531 -26.398438 2.53125 -26.515625 C 2.164062 -26.628906 1.8125 -26.757812 1.46875 -26.90625 L 1.5 -28 L 23.4375 -28 C 23.644531 -28 23.863281 -28.015625 24.09375 -28.046875 C 24.332031 -28.078125 24.503906 -28.097656 24.609375 -28.109375 C 25.035156 -28.179688 25.421875 -28.21875 25.765625 -28.21875 C 26.066406 -28.21875 26.332031 -28.1875 26.5625 -28.125 L 26.5625 -21.4375 L 25.4375 -21.40625 C 25.195312 -21.644531 25 -21.914062 24.84375 -22.21875 C 24.6875 -22.519531 24.503906 -22.914062 24.296875 -23.40625 C 24.015625 -24.113281 23.734375 -24.664062 23.453125 -25.0625 C 23.171875 -25.46875 22.757812 -25.765625 22.21875 -25.953125 C 21.414062 -26.210938 20.414062 -26.378906 19.21875 -26.453125 C 18.03125 -26.523438 16.65625 -26.5625 15.09375 -26.5625 C 13.257812 -26.5625 11.8125 -26.5 10.75 -26.375 C 10.695312 -25.726562 10.671875 -24.988281 10.671875 -24.15625 L 10.671875 -15.421875 L 16.859375 -15.421875 C 17.992188 -15.421875 18.835938 -15.503906 19.390625 -15.671875 C 19.953125 -15.847656 20.382812 -16.128906 20.6875 -16.515625 C 21 -16.898438 21.429688 -17.585938 21.984375 -18.578125 L 22.296875 -19.15625 L 23.53125 -19.15625 L 23.53125 -9.9375 L 22.296875 -9.875 C 21.835938 -11.101562 21.253906 -12.0625 20.546875 -12.75 C 19.835938 -13.4375 18.890625 -13.78125 17.703125 -13.78125 L 10.671875 -13.78125 L 10.671875 -6.53125 C 10.671875 -5.03125 10.84375 -3.921875 11.1875 -3.203125 C 11.539062 -2.484375 12.050781 -2.019531 12.71875 -1.8125 C 13.382812 -1.601562 14.335938 -1.5 15.578125 -1.5 L 17.671875 -1.5 C 19.484375 -1.5 21.046875 -1.703125 22.359375 -2.109375 C 23.671875 -2.523438 24.640625 -3.363281 25.265625 -4.625 L 25.578125 -5.296875 C 25.828125 -5.847656 26.03125 -6.265625 26.1875 -6.546875 C 26.351562 -6.828125 26.554688 -7.097656 26.796875 -7.359375 L 28.15625 -7.359375 Z M 26.734375 0.1875 "/></g></g></g><g fill="#242424" fill-opacity="1"><g transform="translate(538.62973, 488.568547)"><g><path d="M 14.953125 -11.65625 C 14.609375 -12.175781 14.316406 -12.554688 14.078125 -12.796875 C 13.835938 -13.035156 13.550781 -13.21875 13.21875 -13.34375 C 12.894531 -13.476562 12.445312 -13.5625 11.875 -13.59375 L 10.515625 -13.671875 L 10.515625 -5.390625 C 10.515625 -4.359375 10.601562 -3.597656 10.78125 -3.109375 C 10.96875 -2.628906 11.210938 -2.3125 11.515625 -2.15625 C 11.828125 -2 12.289062 -1.867188 12.90625 -1.765625 C 13.351562 -1.691406 13.75 -1.609375 14.09375 -1.515625 C 14.4375 -1.429688 14.789062 -1.300781 15.15625 -1.125 L 15.125 0 L 1.5 0 L 1.46875 -1.125 C 1.851562 -1.332031 2.210938 -1.484375 2.546875 -1.578125 C 2.878906 -1.671875 3.269531 -1.753906 3.71875 -1.828125 C 4.289062 -1.910156 4.71875 -2.035156 5 -2.203125 C 5.28125 -2.367188 5.5 -2.726562 5.65625 -3.28125 C 5.8125 -3.84375 5.890625 -4.734375 5.890625 -5.953125 L 5.890625 -22.265625 C 5.890625 -23.273438 5.800781 -24.035156 5.625 -24.546875 C 5.457031 -25.054688 5.210938 -25.40625 4.890625 -25.59375 C 4.566406 -25.789062 4.0625 -26 3.375 -26.21875 C 2.644531 -26.414062 2.007812 -26.640625 1.46875 -26.890625 L 1.5 -28 L 11.421875 -28 C 14.097656 -28 16.441406 -27.875 18.453125 -27.625 C 20.460938 -27.382812 22.257812 -26.738281 23.84375 -25.6875 C 25.425781 -24.644531 26.21875 -23.035156 26.21875 -20.859375 C 26.21875 -19.515625 25.835938 -18.347656 25.078125 -17.359375 C 24.328125 -16.378906 23.359375 -15.609375 22.171875 -15.046875 C 20.992188 -14.492188 19.734375 -14.117188 18.390625 -13.921875 C 18.554688 -13.691406 19.410156 -12.5 20.953125 -10.34375 C 22.078125 -8.738281 23.035156 -7.394531 23.828125 -6.3125 C 24.628906 -5.238281 25.425781 -4.234375 26.21875 -3.296875 C 26.6875 -2.785156 27.109375 -2.382812 27.484375 -2.09375 C 27.859375 -1.8125 28.320312 -1.582031 28.875 -1.40625 C 29.4375 -1.238281 30.140625 -1.15625 30.984375 -1.15625 L 30.984375 0.046875 C 29.566406 0.390625 28.304688 0.5625 27.203125 0.5625 C 25.679688 0.5625 24.285156 0.0976562 23.015625 -0.828125 C 21.753906 -1.765625 20.660156 -2.867188 19.734375 -4.140625 C 18.804688 -5.421875 17.75 -7.050781 16.5625 -9.03125 C 15.851562 -10.238281 15.316406 -11.113281 14.953125 -11.65625 Z M 11.59375 -15.125 C 13.425781 -15.125 15.007812 -15.226562 16.34375 -15.4375 C 17.675781 -15.65625 18.816406 -16.164062 19.765625 -16.96875 C 20.722656 -17.769531 21.203125 -18.984375 21.203125 -20.609375 C 21.203125 -22.378906 20.6875 -23.6875 19.65625 -24.53125 C 18.632812 -25.382812 17.4375 -25.90625 16.0625 -26.09375 C 14.6875 -26.289062 12.992188 -26.390625 10.984375 -26.390625 L 10.515625 -26.390625 L 10.515625 -15.125 Z M 11.59375 -15.125 "/></g></g></g><g fill="#242424" fill-opacity="1"><g transform="translate(584.067075, 488.568547)"><g><path d="M 10.953125 -5.59375 C 10.953125 -4.5 11.046875 -3.691406 11.234375 -3.171875 C 11.429688 -2.660156 11.695312 -2.316406 12.03125 -2.140625 C 12.363281 -1.972656 12.898438 -1.828125 13.640625 -1.703125 C 14.484375 -1.554688 15.234375 -1.367188 15.890625 -1.140625 L 15.84375 0 L 1.546875 0 L 1.546875 -1.125 C 1.960938 -1.300781 2.335938 -1.429688 2.671875 -1.515625 C 3.015625 -1.597656 3.441406 -1.679688 3.953125 -1.765625 C 4.597656 -1.847656 5.070312 -1.972656 5.375 -2.140625 C 5.675781 -2.304688 5.910156 -2.675781 6.078125 -3.25 C 6.242188 -3.820312 6.328125 -4.734375 6.328125 -5.984375 L 6.328125 -22.15625 C 6.328125 -23.332031 6.222656 -24.195312 6.015625 -24.75 C 5.816406 -25.3125 5.554688 -25.671875 5.234375 -25.828125 C 4.910156 -25.984375 4.4375 -26.109375 3.8125 -26.203125 C 3.289062 -26.285156 2.859375 -26.367188 2.515625 -26.453125 C 2.179688 -26.535156 1.832031 -26.6875 1.46875 -26.90625 L 1.5 -28 L 15.765625 -28 L 15.8125 -26.890625 C 15.507812 -26.773438 15.078125 -26.648438 14.515625 -26.515625 C 13.722656 -26.316406 13.09375 -26.113281 12.625 -25.90625 C 12.15625 -25.707031 11.757812 -25.394531 11.4375 -24.96875 C 11.113281 -24.550781 10.953125 -23.976562 10.953125 -23.25 Z M 10.953125 -5.59375 "/></g></g></g><g fill="#242424" fill-opacity="1"><g transform="translate(615.957248, 488.568547)"><g><path d="M 6.953125 -23.46875 C 6.578125 -24.070312 6.1875 -24.550781 5.78125 -24.90625 C 5.382812 -25.257812 4.984375 -25.53125 4.578125 -25.71875 C 4.179688 -25.90625 3.644531 -26.113281 2.96875 -26.34375 C 2.320312 -26.5625 1.820312 -26.742188 1.46875 -26.890625 L 1.46875 -28 L 8.96875 -28 L 29.203125 -7.078125 L 29.203125 -20.609375 C 29.203125 -21.960938 29.007812 -23.203125 28.625 -24.328125 C 28.46875 -24.785156 28.253906 -25.140625 27.984375 -25.390625 C 27.710938 -25.648438 27.414062 -25.835938 27.09375 -25.953125 C 26.78125 -26.066406 26.359375 -26.191406 25.828125 -26.328125 C 25.742188 -26.359375 25.523438 -26.414062 25.171875 -26.5 C 24.816406 -26.59375 24.5 -26.710938 24.21875 -26.859375 C 24.21875 -27.234375 24.238281 -27.613281 24.28125 -28 L 35.609375 -28 L 35.609375 -26.84375 C 35.210938 -26.65625 34.800781 -26.472656 34.375 -26.296875 C 33.320312 -25.835938 32.59375 -25.457031 32.1875 -25.15625 C 31.789062 -24.863281 31.507812 -24.394531 31.34375 -23.75 C 31.175781 -23.113281 31.085938 -22.070312 31.078125 -20.625 C 31.078125 -19.894531 31.0625 -18.8125 31.03125 -17.375 C 31.019531 -16.289062 31.003906 -14.929688 30.984375 -13.296875 C 30.972656 -11.671875 30.96875 -9.769531 30.96875 -7.59375 C 30.96875 -6.644531 31.054688 -5.238281 31.234375 -3.375 C 31.367188 -1.800781 31.445312 -0.613281 31.46875 0.1875 C 31.195312 0.289062 30.84375 0.34375 30.40625 0.34375 C 29.945312 0.34375 29.539062 0.289062 29.1875 0.1875 C 28.15625 -1.070312 26.976562 -2.410156 25.65625 -3.828125 L 8.671875 -21.703125 L 8.671875 -6.609375 C 8.671875 -5.640625 8.789062 -4.671875 9.03125 -3.703125 C 9.144531 -3.210938 9.351562 -2.832031 9.65625 -2.5625 C 9.957031 -2.300781 10.28125 -2.113281 10.625 -2 C 10.976562 -1.882812 11.457031 -1.769531 12.0625 -1.65625 C 12.894531 -1.53125 13.515625 -1.359375 13.921875 -1.140625 C 13.921875 -0.765625 13.894531 -0.382812 13.84375 0 L 1.71875 0 C 1.6875 -0.257812 1.671875 -0.644531 1.671875 -1.15625 L 2.671875 -1.421875 C 3.585938 -1.648438 4.3125 -1.867188 4.84375 -2.078125 C 5.382812 -2.296875 5.851562 -2.648438 6.25 -3.140625 C 6.644531 -3.628906 6.878906 -4.296875 6.953125 -5.140625 Z M 6.953125 -23.46875 "/></g></g></g><g fill="#242424" fill-opacity="1"><g transform="translate(667.566072, 488.568547)"><g><path d="M 29.8125 -2.046875 C 28.300781 -1.253906 26.570312 -0.617188 24.625 -0.140625 C 22.675781 0.328125 20.707031 0.5625 18.71875 0.5625 C 15.46875 0.5625 12.613281 -0.0234375 10.15625 -1.203125 C 7.695312 -2.390625 5.789062 -4.0625 4.4375 -6.21875 C 3.082031 -8.382812 2.40625 -10.882812 2.40625 -13.71875 C 2.40625 -16.632812 3.175781 -19.21875 4.71875 -21.46875 C 6.269531 -23.71875 8.351562 -25.457031 10.96875 -26.6875 C 13.582031 -27.925781 16.425781 -28.546875 19.5 -28.546875 C 21.195312 -28.546875 22.75 -28.414062 24.15625 -28.15625 C 25.570312 -27.894531 27.171875 -27.445312 28.953125 -26.8125 L 29.59375 -20.328125 C 29.144531 -20.285156 28.726562 -20.265625 28.34375 -20.265625 C 28.144531 -20.429688 27.960938 -20.648438 27.796875 -20.921875 C 27.628906 -21.191406 27.40625 -21.601562 27.125 -22.15625 C 26.976562 -22.4375 26.828125 -22.71875 26.671875 -23 C 26.515625 -23.28125 26.367188 -23.5 26.234375 -23.65625 C 24.429688 -25.8125 22.003906 -26.890625 18.953125 -26.890625 C 16.765625 -26.890625 14.800781 -26.347656 13.0625 -25.265625 C 11.332031 -24.191406 9.976562 -22.710938 9 -20.828125 C 8.03125 -18.941406 7.546875 -16.835938 7.546875 -14.515625 C 7.546875 -12.003906 8.03125 -9.742188 9 -7.734375 C 9.96875 -5.734375 11.328125 -4.164062 13.078125 -3.03125 C 14.828125 -1.894531 16.828125 -1.328125 19.078125 -1.328125 C 20.265625 -1.328125 21.3125 -1.429688 22.21875 -1.640625 C 23.132812 -1.847656 24 -2.210938 24.8125 -2.734375 C 24.988281 -4.191406 25.078125 -6.007812 25.078125 -8.1875 C 25.078125 -9.550781 24.875 -10.785156 24.46875 -11.890625 C 24.3125 -12.335938 24.015625 -12.648438 23.578125 -12.828125 C 23.140625 -13.003906 22.550781 -13.148438 21.8125 -13.265625 C 21.144531 -13.378906 20.6875 -13.488281 20.4375 -13.59375 C 20.4375 -13.8125 20.441406 -14.03125 20.453125 -14.25 C 20.460938 -14.46875 20.46875 -14.625 20.46875 -14.71875 L 33.375 -14.71875 C 33.375 -14.625 33.378906 -14.46875 33.390625 -14.25 C 33.410156 -14.03125 33.421875 -13.8125 33.421875 -13.59375 C 33.234375 -13.519531 33.023438 -13.445312 32.796875 -13.375 C 32.109375 -13.132812 31.570312 -12.90625 31.1875 -12.6875 C 30.800781 -12.46875 30.472656 -12.140625 30.203125 -11.703125 C 29.941406 -11.273438 29.8125 -10.691406 29.8125 -9.953125 Z M 29.8125 -2.046875 "/></g></g></g></svg>