<svg xmlns="http://www.w3.org/2000/svg" xmlns:xlink="http://www.w3.org/1999/xlink" width="1080" zoomAndPan="magnify" viewBox="0 0 810 1439.999935" height="1920" preserveAspectRatio="xMidYMid meet" version="1.0"><defs><clipPath id="f9cefd710e"><path d="M 218.277344 685.195312 L 617.832031 685.195312 L 617.832031 951.769531 L 218.277344 951.769531 Z M 218.277344 685.195312 " clip-rule="nonzero"/></clipPath><clipPath id="09b3fba4c8"><path d="M 191.84375 466.867188 L 600 466.867188 L 600 957.722656 L 191.84375 957.722656 Z M 191.84375 466.867188 " clip-rule="nonzero"/></clipPath></defs><path fill="#000000" d="M 540.847656 505.058594 C 540.902344 504.820312 540.914062 504.75 540.847656 505.058594 Z M 286.4375 587.148438 C 286.425781 587.160156 286.417969 587.171875 286.449219 587.136719 C 286.4375 587.148438 286.4375 587.148438 286.4375 587.148438 Z M 523.765625 620.136719 C 523.75 619.871094 523.75 619.917969 523.765625 620.136719 Z M 304.601562 747.511719 C 304.726562 747.632812 304.625 747.53125 304.492188 747.410156 Z M 403.863281 762.28125 C 403.453125 762.308594 403.542969 762.300781 403.863281 762.28125 Z M 404.070312 762.269531 C 403.847656 762.28125 403.847656 762.28125 404.070312 762.269531 Z M 375.941406 750.734375 C 380.140625 751.824219 375.808594 756.390625 370.75 758.285156 C 365.613281 755.433594 369.707031 749.707031 375.941406 750.734375 Z M 380.183594 692.808594 C 379.769531 692.835938 379.863281 692.828125 380.183594 692.808594 Z M 373.695312 684.617188 C 373.589844 684.660156 373.582031 684.660156 373.695312 684.617188 Z M 382.714844 682.039062 C 382.675781 682.039062 382.585938 682.078125 382.714844 682.039062 Z M 382.921875 681.863281 C 382.828125 681.976562 382.753906 682.035156 382.921875 681.863281 Z M 382.867188 681.789062 C 382.804688 681.933594 382.699219 682.109375 382.867188 681.789062 Z M 408.6875 669.246094 C 408.796875 669.269531 408.90625 669.292969 409.015625 669.316406 Z M 401.832031 668.382812 C 403.875 668.464844 418.316406 670.058594 399.71875 668.761719 C 392.820312 668.277344 395.875 668.417969 395.488281 668.4375 C 397.601562 668.328125 399.710938 668.292969 401.832031 668.382812 Z M 382.003906 665.941406 C 381.867188 665.949219 381.183594 665.980469 382.003906 665.941406 Z M 361.75 663.777344 C 361.761719 663.9375 361.753906 663.898438 361.75 663.777344 Z M 361.796875 663.734375 C 361.832031 663.839844 361.820312 663.8125 361.796875 663.734375 Z M 361.828125 663.6875 C 361.863281 663.742188 361.867188 663.75 361.828125 663.6875 Z M 503.90625 661.324219 C 503.6875 661.578125 503.613281 661.65625 503.90625 661.324219 Z M 387.65625 659.527344 C 387.597656 659.8125 387.59375 659.828125 387.65625 659.527344 Z M 223.085938 647.113281 C 223.007812 647.460938 223.003906 647.472656 223.085938 647.113281 Z M 522.78125 638.160156 C 522.722656 638.425781 522.734375 638.359375 522.78125 638.160156 Z M 302.375 609.992188 C 302.085938 610.089844 302.152344 610.0625 302.375 609.992188 Z M 296.050781 609.003906 C 296.105469 609.152344 296.09375 609.125 296.050781 609.003906 Z M 297.039062 602.519531 C 296.984375 602.640625 296.960938 602.679688 297.039062 602.519531 Z M 405.226562 599.914062 C 405.070312 599.976562 405.054688 599.976562 405.226562 599.914062 Z M 214.121094 592.746094 C 213.828125 593.074219 213.753906 593.144531 214.121094 592.746094 Z M 320.441406 579.710938 C 320.199219 579.871094 320.199219 579.871094 320.441406 579.710938 Z M 427.878906 572.371094 C 417.519531 578.421875 407.960938 577.878906 427.878906 572.371094 Z M 307.953125 570.109375 C 307.824219 570.1875 307.824219 570.1875 307.953125 570.109375 Z M 333.546875 565.5625 C 333.5625 565.742188 333.5625 565.777344 333.546875 565.5625 Z M 527.34375 565.230469 C 527.292969 565.480469 527.289062 565.484375 527.34375 565.230469 Z M 328.550781 560.886719 C 328.289062 560.90625 328.328125 560.898438 328.550781 560.886719 Z M 454.636719 544.46875 C 454.558594 544.613281 454.554688 544.625 454.636719 544.46875 Z M 483.421875 526.832031 C 491.082031 525.332031 497.226562 524.570312 504.003906 520.429688 C 505.328125 519.609375 502.066406 521.839844 501.65625 522.105469 C 487.71875 531.023438 464.984375 536.117188 456.164062 541.746094 C 462.203125 531.730469 470.511719 529.351562 483.421875 526.832031 Z M 511.589844 513.65625 C 511.566406 513.691406 511.527344 513.734375 511.589844 513.65625 Z M 521.023438 499.675781 C 520.914062 499.878906 520.933594 499.835938 521.023438 499.675781 Z M 534.78125 481.683594 C 530.5 489.523438 529.253906 489.929688 534.78125 481.683594 Z M 543.027344 471.65625 C 545.832031 483.691406 540.300781 507.722656 540.847656 505.058594 C 533.703125 537.957031 517.503906 565.328125 521.78125 600.800781 C 523.960938 618.882812 528.003906 643.417969 513.0625 653.613281 C 508.535156 656.464844 503.257812 653.445312 498.019531 663.632812 C 492.644531 674.097656 497.773438 675.65625 483.230469 695.714844 C 471.191406 712.324219 454.136719 726.53125 440.722656 739.34375 C 429.695312 749.859375 419.28125 761.234375 403.871094 762.28125 C 395.804688 762.691406 382.957031 761.902344 375.558594 760 C 381.390625 756.527344 383.660156 749.699219 377.695312 747.507812 C 373.710938 746.050781 365.917969 747.773438 364.925781 754.046875 C 364.695312 755.433594 365.132812 758.050781 366.40625 759.453125 C 351.363281 762.433594 315.75 757.679688 304.601562 747.511719 C 286.273438 731.097656 278.296875 708.660156 250.613281 697.859375 C 237.074219 692.566406 233.800781 692.023438 229.226562 680.421875 C 224.964844 669.585938 217.40625 670.796875 213.167969 664.859375 C 212.210938 663.214844 211.296875 659.867188 212.328125 657.554688 C 216.710938 650.105469 232.285156 660.160156 235.941406 632.636719 C 236.316406 629.726562 250.804688 631.921875 261.027344 622.8125 C 273.734375 611.4375 275.136719 594.648438 297.0625 577.867188 C 304.140625 572.460938 327.386719 555.511719 332.652344 562.609375 C 339.421875 574.109375 305.3125 584.878906 295.1875 598.769531 C 290.507812 605.167969 290.015625 618.035156 304.148438 613.15625 C 319.441406 607.875 350.601562 581.527344 362.523438 573.640625 C 367.449219 570.457031 377.082031 566.605469 384.671875 566.0625 C 400.527344 565.492188 395.535156 577.351562 408.671875 580.089844 C 408.574219 580.46875 407.046875 598.101562 406.019531 599.546875 C 405.3125 600.128906 402.410156 600.425781 396.96875 602.21875 C 390.230469 604.40625 380.152344 604.925781 378.335938 613.617188 C 376.308594 623.289062 384.195312 628.011719 386.75 631.648438 C 391.269531 638.957031 386.511719 648.023438 384.121094 659.035156 C 377.34375 657.175781 369.945312 653.914062 363.625 657.171875 C 361.210938 658.414062 357.460938 661.582031 358.289062 664.480469 C 359.511719 668.609375 368.675781 669.214844 373.65625 669.539062 C 377.765625 669.800781 376.441406 669.1875 374.929688 670.65625 C 373.554688 671.988281 372.921875 674.761719 373.929688 676.734375 C 375.378906 679.570312 379.746094 679.875 382.382812 680.410156 C 383.066406 680.582031 383.03125 680.414062 382.855469 681.589844 C 382.730469 682.042969 382.902344 682.023438 381.496094 681.824219 C 377.464844 681.230469 376.132812 682.941406 374.617188 684.21875 C 372.683594 685.273438 367.527344 685.003906 367.558594 688.472656 C 367.589844 691.066406 371.894531 695.984375 378.191406 696.390625 C 384.945312 696.816406 389.945312 693.140625 399.839844 697.949219 C 400.855469 698.527344 400.738281 698.445312 400.246094 698.796875 C 392.753906 703.328125 371.746094 704.511719 373.953125 714.890625 C 374.695312 718.367188 378.441406 721.753906 380.195312 724.292969 C 381.140625 725.8125 381.722656 726.640625 376.265625 727.839844 C 373.867188 728.351562 374.710938 731.847656 376.945312 731.367188 C 393.394531 727.785156 377.984375 718.777344 377.382812 713.625 C 377.382812 706.765625 402.4375 705.539062 404.316406 699.355469 C 405.386719 695.84375 400.46875 694.117188 397.027344 693.082031 C 386.730469 689.976562 383.425781 693.878906 376.511719 692.5625 C 373.570312 691.757812 371.285156 688.894531 371.394531 688.851562 C 378.582031 686.765625 375.695312 687.699219 378.320312 685.738281 C 380.429688 684.589844 382.054688 686.148438 384.210938 685.296875 C 386.582031 684.363281 387.257812 679.886719 385.941406 678.261719 C 384.289062 676.214844 378.589844 676.925781 377.136719 675.105469 C 373.703125 668.566406 406.792969 673.878906 416.191406 672.875 C 420.792969 672.371094 420.261719 669.679688 418.597656 668.902344 C 401.261719 660.808594 388.933594 667.277344 372.105469 665.816406 C 370.484375 665.675781 362.984375 665.019531 361.773438 663.550781 C 362.003906 662.828125 363.929688 660.785156 366.515625 659.824219 C 375.300781 657.359375 386.402344 666.433594 387.292969 661.367188 C 388.011719 657.394531 389.585938 652.609375 390.75 648.007812 C 396.621094 624.800781 382.652344 629.183594 381.664062 616.890625 C 381.445312 608.195312 388.230469 608.699219 406.0625 603.394531 C 409.074219 602.492188 409.53125 601.117188 409.988281 598.53125 C 412.410156 584.785156 411.460938 584.734375 412.082031 581.257812 C 412.578125 579.257812 417.171875 582.679688 429.3125 575.695312 C 437.765625 570.832031 446.128906 562.390625 450.628906 553.226562 C 461.167969 531.734375 502.183594 542.316406 523.320312 502.953125 C 542.421875 482.253906 540.433594 474.136719 543.027344 471.65625 Z M 534.839844 461.585938 C 539.238281 462.707031 539.503906 466.324219 538.769531 470.871094 C 528.726562 481.527344 523.84375 494.5 520.417969 500.8125 C 495.289062 527.730469 494.050781 518.417969 469.925781 526.535156 C 459.550781 530.015625 455.007812 535.449219 450.433594 544.917969 C 447.988281 549.96875 451.023438 544.761719 444.457031 553.203125 C 440.921875 557.753906 436.621094 563.664062 431.925781 566.867188 C 427.644531 569.515625 417.398438 570.355469 411.292969 575.8125 C 410.09375 576.878906 410.753906 576.851562 409.367188 576.589844 C 400.140625 574.453125 401.746094 566.34375 392.382812 563.339844 C 383.945312 560.65625 371.054688 564.816406 363.230469 569.035156 C 352.425781 574.847656 309.398438 612.507812 297.667969 610.648438 C 294.636719 609.824219 295.214844 603.960938 299.621094 598.976562 C 303.050781 595.285156 307.273438 592.394531 311.464844 589.648438 L 311.078125 589.90625 C 323.335938 581.917969 336.632812 575.148438 337.109375 566.105469 C 337.410156 560.484375 333.425781 555.726562 324.632812 557.875 C 314.539062 560.34375 300.199219 570.832031 292.078125 577.183594 C 281.082031 585.863281 277.53125 592.578125 269.835938 605.058594 C 256.023438 627.457031 252.398438 623.980469 236.292969 628.050781 C 236.945312 600.59375 219.742188 607.59375 212.738281 606.273438 C 206.171875 604.523438 209.480469 597.941406 214.136719 592.730469 C 264.59375 538.207031 346.890625 527.066406 415.667969 500.160156 C 425.519531 496.296875 431.957031 493.226562 446.113281 487.621094 C 477.71875 475.082031 526.289062 460.019531 534.839844 461.585938 Z M 529.097656 457.949219 C 523.875 458.496094 478.839844 469.488281 425.1875 492.398438 C 361.632812 519.507812 297.273438 526.976562 242.539062 564.46875 C 234.394531 570.050781 214.285156 585.898438 208.53125 593.972656 C 203.484375 601.0625 205.203125 606.6875 209.707031 608.972656 C 215.460938 611.882812 223.65625 608 228.132812 611.871094 C 232.296875 615.917969 232.976562 623.46875 232.648438 629.171875 C 219.214844 634.183594 217.03125 653.6875 222.296875 649.179688 C 223.667969 648.015625 223.277344 637.664062 232.226562 633.261719 C 231.695312 636.863281 230.675781 640.585938 229.054688 643.839844 C 225.507812 650.46875 223.03125 648.53125 214.46875 651.652344 C 209.375 653.515625 207.328125 657.277344 208.695312 663.105469 C 210.695312 671.851562 219.875 672.171875 224.0625 678.058594 C 227.242188 683.203125 226.695312 686.914062 231.320312 691.625 C 237.996094 698.429688 246.746094 699.4375 256.054688 704.191406 C 278.742188 716.203125 289.195312 741.046875 305.285156 752.769531 C 314.242188 759.324219 347.472656 766.570312 366.6875 763.0625 C 374.125 761.699219 366.261719 761.710938 377.113281 764.015625 C 385.964844 765.875 400.011719 766.335938 406.019531 765.6875 C 420.875 764.09375 431.304688 754.027344 464.222656 722.273438 C 475.664062 711.238281 488.417969 697.195312 495.367188 682.886719 C 500.058594 673.207031 498.265625 660.550781 510.292969 658.527344 C 514.378906 657.835938 518.09375 654.605469 520.664062 651.445312 C 534.175781 634.855469 522.84375 603.421875 525.054688 579.605469 C 527.949219 548.75 555.066406 493.171875 545.527344 467.625 C 545.183594 466.6875 543.695312 466.207031 542.742188 467.042969 C 542.253906 467.457031 544.238281 456.351562 529.097656 457.949219 " fill-opacity="1" fill-rule="nonzero"/><g clip-path="url(#f9cefd710e)"><path fill="#000000" d="M 300.546875 935.554688 C 300.910156 935.628906 300.828125 935.617188 300.546875 935.554688 Z M 255.96875 916.59375 C 256.246094 916.746094 256.246094 916.746094 255.96875 916.59375 Z M 447.382812 912.207031 L 447.238281 912.300781 Z M 228.3125 898.027344 C 228.574219 898.273438 228.515625 898.222656 228.3125 898.027344 Z M 437.195312 896.796875 C 436.78125 897.066406 436.78125 897.066406 437.195312 896.796875 Z M 475.480469 880.15625 C 464.8125 896.699219 442.832031 925.882812 427.984375 913.015625 C 416.824219 902.1875 457.96875 885.421875 475.480469 880.15625 Z M 238.03125 864.355469 C 237.878906 864.53125 237.878906 864.53125 238.03125 864.355469 Z M 520.753906 859.292969 C 520.769531 859.488281 520.769531 859.5 520.753906 859.292969 Z M 520.738281 858.960938 C 520.746094 859.160156 520.746094 859.171875 520.738281 858.960938 Z M 413.820312 853.652344 C 414.027344 853.695312 414.035156 853.699219 413.820312 853.652344 Z M 608.734375 849.277344 C 608.902344 849.355469 608.863281 849.34375 608.734375 849.277344 Z M 377.414062 843.441406 C 383.027344 844.726562 388.609375 847.351562 394.242188 849.984375 C 393.726562 850.570312 393.859375 851.003906 393.714844 851.867188 C 392.484375 855.796875 385.769531 852.980469 370.5625 852.851562 C 350.535156 852.679688 361.242188 840.1875 377.414062 843.441406 Z M 583.335938 841.40625 C 583.742188 841.496094 583.644531 841.476562 583.335938 841.40625 Z M 256.390625 835.277344 C 256.324219 835.40625 256.316406 835.417969 256.390625 835.277344 Z M 524.441406 833.332031 C 515.117188 842.238281 523.617188 860.457031 519.464844 863.472656 C 515.8125 865.675781 499.421875 869.703125 483.382812 874.140625 C 489.460938 863.726562 499.832031 838.550781 524.441406 833.332031 Z M 476.195312 760.5625 C 476.160156 760.738281 476.144531 760.796875 476.195312 760.5625 Z M 485.925781 686.449219 C 477.09375 713.765625 481.972656 740.996094 474.550781 767.128906 C 470.519531 781.359375 457.8125 784.871094 448.789062 795.027344 C 432.589844 813.253906 446.203125 840.808594 432.074219 850.558594 C 423.339844 856.136719 414.996094 854.773438 405.417969 851.035156 C 407.125 850.199219 406.464844 847.722656 404.765625 847.644531 C 402.867188 847.558594 401.03125 847.910156 399.195312 848.367188 C 386.109375 842.371094 377.839844 837.453125 366.238281 840.039062 C 359.421875 841.558594 353.984375 845.699219 356.992188 851.722656 C 359.402344 856.515625 367.683594 856.488281 372.984375 856.421875 C 383.34375 856.296875 395.4375 860.757812 397.210938 852.609375 C 399.480469 852.027344 398.183594 851.886719 402.027344 853.523438 C 413.992188 858.613281 425.863281 860.429688 435.949219 852.148438 C 447.25 842.882812 440.046875 818.117188 447.046875 803.8125 C 454.121094 790.445312 467.4375 787.8125 474.921875 775.324219 C 481.160156 764.894531 482.449219 741.75 483.152344 729.941406 C 484.050781 714.710938 481.730469 731.558594 491.226562 755.898438 C 504.636719 790.21875 513.554688 816.136719 533.507812 828.613281 C 535.164062 829.648438 522.011719 826.324219 506.085938 837.78125 C 494.171875 846.359375 487.421875 859.382812 483.234375 867.144531 C 475.800781 880.8125 482.28125 872.074219 455.285156 883.46875 C 444.777344 887.90625 421.738281 898.605469 422.453125 910.011719 C 422.941406 917.574219 443.738281 938.542969 480.695312 878.625 C 522.234375 866.773438 525.046875 868.847656 524.242188 858.09375 C 521.980469 827.289062 525.765625 829.160156 583.1875 841.375 C 583.144531 841.367188 613.296875 846.871094 614.3125 855.199219 C 614.324219 859.320312 608.929688 863.773438 605.699219 866.378906 C 605.1875 866.796875 587.4375 880.457031 582.617188 883.648438 C 544.054688 908.746094 517 898.992188 487.527344 914.925781 C 483.105469 917.308594 478.894531 920.363281 466.332031 926.636719 C 395.089844 962.195312 344.796875 944.871094 300.964844 935.644531 C 281.605469 931.371094 275.636719 923.273438 258.640625 913.972656 C 248.886719 908.632812 231.855469 904.269531 224.574219 893.773438 C 221.449219 888.820312 221.417969 884.0625 222.96875 880.71875 C 228.65625 870.589844 236.683594 881.566406 259.640625 836.742188 C 269.34375 817.835938 268.742188 800.121094 263.476562 779.8125 C 250.394531 729.097656 242.503906 726.597656 237.1875 711.492188 C 232.15625 695.90625 241.101562 689.121094 237.019531 687.628906 C 236.101562 687.296875 235.050781 687.785156 234.71875 688.710938 C 225.992188 713.066406 239.394531 714.6875 254.691406 763.101562 C 261.703125 785.34375 267.886719 804.761719 259.976562 827.050781 C 257.230469 834.835938 244.527344 857.046875 238.125 864.25 C 231.71875 871.144531 226.660156 871.089844 221.921875 876.097656 C 217.230469 881.054688 216.664062 890.089844 223.316406 898.027344 C 229.066406 904.917969 239.921875 909.535156 248.191406 913.074219 C 270.625 922.714844 276.609375 933.316406 297.679688 938.550781 C 297.726562 938.5625 342.378906 949.167969 363.121094 950.980469 C 436.410156 957.398438 482.394531 919.339844 501.1875 912.894531 C 517.683594 907.464844 533.375 907.273438 551.714844 901.875 C 576.039062 894.734375 589.078125 883.621094 605.859375 870.820312 C 632.394531 850.535156 611.066406 843.277344 578.40625 836.75 C 540.351562 829.144531 525.890625 833.097656 504.714844 779.832031 C 494.320312 753.691406 487.957031 741.539062 486.609375 717.964844 C 485.640625 697.277344 489.96875 687.816406 489.226562 686.28125 C 488.53125 684.820312 486.386719 685.019531 485.925781 686.449219 " fill-opacity="1" fill-rule="nonzero"/></g><path fill="#000000" d="M 492.003906 471.175781 C 492.082031 471.148438 492.09375 471.148438 492.003906 471.175781 Z M 513.066406 514.253906 C 513.125 514.238281 513.117188 514.238281 513.066406 514.253906 Z M 413.285156 610.753906 C 413.179688 610.769531 413.628906 610.738281 413.285156 610.753906 Z M 404.277344 662.902344 C 404.4375 662.890625 404.597656 662.875 404.277344 662.902344 Z M 382.449219 730.199219 C 382.527344 730.265625 382.546875 730.289062 382.449219 730.199219 Z M 375.4375 723.09375 C 375.226562 723.164062 375.214844 723.167969 375.4375 723.09375 Z M 384.339844 704.019531 C 384.246094 704.128906 384.28125 704.082031 384.339844 704.019531 Z M 375.921875 687.808594 C 375.773438 687.824219 375.769531 687.824219 375.921875 687.808594 Z M 381.484375 678.785156 C 381.605469 678.808594 381.800781 678.847656 381.484375 678.785156 Z M 394.757812 676.195312 C 394.902344 676.222656 394.867188 676.21875 394.757812 676.195312 Z M 373.679688 673.984375 C 373.558594 674.121094 373.539062 674.132812 373.679688 673.984375 Z M 425.335938 668.003906 C 425.164062 668.015625 425.164062 668.015625 425.335938 668.003906 Z M 353.199219 667.179688 C 353.058594 667.339844 353.082031 667.304688 353.199219 667.179688 Z M 394.894531 666.152344 C 394.585938 666.257812 394.660156 666.230469 394.894531 666.152344 Z M 418.839844 664.9375 C 421.378906 665.515625 423.425781 666.355469 425.4375 667.996094 C 411.210938 668.695312 408.398438 663.660156 397.578125 674.714844 C 395.882812 676.429688 396.710938 676.523438 394.609375 676.160156 C 389.8125 675.097656 385.113281 671.476562 380.539062 670.3125 C 388.210938 669.703125 396.070312 668.980469 399.097656 666.160156 C 400.566406 664.777344 398.609375 665.234375 402.472656 665.050781 C 407.765625 664.804688 413.425781 663.898438 418.839844 664.9375 Z M 357.636719 663.457031 C 357.417969 663.613281 357.339844 663.65625 357.636719 663.457031 Z M 394.121094 662.5625 C 394.394531 662.605469 394.480469 662.632812 394.121094 662.5625 Z M 393.804688 661.378906 C 393.960938 661.40625 393.96875 661.410156 393.804688 661.378906 Z M 390 661.011719 C 390.679688 661.019531 390.535156 660.992188 390.710938 661.175781 C 391.15625 661.636719 391.855469 661.644531 392.273438 661.148438 C 393.910156 661.328125 396.554688 661.988281 397.566406 663.003906 C 394.984375 662.839844 392.230469 662.308594 390 661.011719 Z M 376.835938 657.042969 L 376.757812 657.046875 Z M 383.339844 657.40625 C 384.835938 657.71875 386.632812 658.277344 387.953125 659.042969 C 383.703125 659.398438 387.0625 662.214844 391.230469 663.835938 C 395.871094 665.644531 399.847656 664.371094 394.917969 666.144531 C 386.257812 668.890625 350.492188 670.320312 353.066406 667.332031 C 359.449219 660.371094 373.183594 655.570312 383.339844 657.40625 Z M 390.519531 638.628906 C 390.371094 638.910156 390.425781 638.789062 390.519531 638.628906 Z M 392.1875 637.195312 C 392.070312 637.285156 392.015625 637.316406 392.1875 637.195312 Z M 393.222656 634.144531 C 393.046875 634.257812 393.089844 634.226562 393.222656 634.144531 Z M 394.800781 632.6875 C 394.757812 632.777344 394.742188 632.796875 394.800781 632.6875 Z M 394.960938 632.273438 C 394.929688 632.472656 394.90625 632.558594 394.960938 632.273438 Z M 395 631.765625 C 395.03125 632.007812 395.035156 632.222656 395 631.765625 Z M 394.964844 631.515625 C 395.011719 631.636719 395.011719 631.636719 394.964844 631.515625 Z M 392.9375 626.796875 C 392.984375 626.933594 392.960938 626.875 392.9375 626.796875 Z M 387.367188 612.632812 C 387.105469 612.414062 387.015625 612.46875 387.800781 612.496094 C 387.59375 613.003906 388.03125 613.210938 387.367188 612.632812 Z M 394.460938 611.902344 C 394.375 611.933594 394.371094 611.9375 394.460938 611.902344 Z M 247.746094 610.09375 C 247.714844 610.230469 247.71875 610.199219 247.746094 610.09375 Z M 409.703125 608.902344 C 410.792969 608.945312 411.765625 608.8125 401.433594 609.78125 C 404.796875 608.980469 407.300781 608.8125 409.703125 608.902344 Z M 365.382812 608.421875 C 365.484375 608.445312 365.496094 608.445312 365.382812 608.421875 Z M 247.945312 605.933594 C 247.953125 606.074219 247.949219 606.042969 247.945312 605.933594 Z M 368.648438 605.847656 C 370.519531 606.277344 371.84375 606.886719 373.394531 607.65625 C 378.28125 610.15625 377.457031 609.691406 376.5 609.632812 C 372.359375 609.375 369.496094 609.226562 365.242188 608.394531 C 361.042969 607.511719 361.6875 607.644531 362.558594 607.039062 C 364.464844 605.828125 366.136719 605.429688 368.648438 605.847656 Z M 215.425781 594.390625 C 215.433594 594.492188 215.429688 594.476562 215.425781 594.390625 Z M 415.273438 589.898438 C 415.34375 590.085938 415.355469 590.128906 415.273438 589.898438 Z M 416.441406 579.324219 C 416.417969 579.441406 416.410156 579.464844 416.441406 579.324219 Z M 433.019531 555.390625 C 432.910156 555.515625 432.886719 555.539062 433.019531 555.390625 Z M 433.101562 555.296875 C 433.023438 555.390625 432.980469 555.433594 433.101562 555.296875 Z M 470.507812 538.242188 C 470.445312 538.53125 470.464844 538.402344 470.507812 538.242188 Z M 475.632812 525.835938 C 475.429688 526.054688 475.453125 526.03125 475.632812 525.835938 Z M 478.695312 523.363281 C 478.488281 523.519531 478.414062 523.5625 478.695312 523.363281 Z M 536.785156 475.269531 C 536.707031 475.367188 536.664062 475.410156 536.785156 475.269531 Z M 541.222656 474.035156 C 541.257812 474.042969 541.269531 474.046875 541.222656 474.035156 Z M 535.613281 469.984375 C 535.6875 470.1875 535.652344 470.121094 535.613281 469.984375 Z M 545.828125 461.933594 C 545.804688 462.035156 545.800781 462.039062 545.828125 461.933594 Z M 545.457031 458.324219 C 545.511719 458.480469 545.484375 458.410156 545.457031 458.324219 Z M 545.09375 457.394531 C 546.230469 460.09375 546.035156 462.011719 545.195312 463.878906 C 543.535156 467.039062 537.019531 472.15625 536.976562 472.117188 C 532.480469 467.707031 538.664062 459.910156 545.09375 457.394531 Z M 537.109375 454.203125 C 536.820312 454.300781 536.878906 454.277344 537.109375 454.203125 Z M 541.875 450.835938 C 527.730469 453.066406 522.183594 464.074219 459.75 481.046875 C 366.007812 506.53125 326.390625 499.535156 249.722656 554.910156 C 233.9375 566.304688 201.714844 590.570312 217.679688 601.738281 C 228.390625 609.199219 243.101562 597.789062 247.136719 603.269531 C 248.546875 605.625 248.105469 610.019531 246.816406 612.71875 C 244.398438 617.417969 240.417969 621.3125 242.027344 624.394531 C 243.636719 627.550781 255.742188 627.625 253.402344 624.914062 C 252.597656 624.003906 250.628906 625.261719 245.886719 624.4375 C 239.714844 623.011719 248.847656 617.136719 249.839844 609.773438 C 252.308594 591.695312 233.40625 603.910156 223.960938 602.269531 C 211.394531 599.425781 214.3125 589.941406 222.96875 580.101562 C 221.40625 581.90625 229.625 570.667969 261.707031 549.027344 C 258.542969 551.132812 293.335938 526.527344 328.941406 514.644531 C 371.933594 499.761719 473.519531 486.921875 522.746094 460.832031 C 529.128906 457.460938 542.183594 450.402344 548.695312 453.363281 C 557.320312 458.066406 545.75 468.40625 541.542969 474.097656 C 540.84375 473.96875 539.761719 473.667969 538.839844 473.277344 C 544.480469 468.207031 550.792969 464.582031 546.566406 455.664062 C 545.128906 452.621094 528.816406 464.03125 534.523438 472.386719 C 535.925781 474.441406 536.027344 472.457031 533.527344 476.167969 C 529.574219 482.023438 529.367188 487.542969 528.207031 493.304688 C 521.019531 527.261719 495.496094 509.519531 477.347656 521.820312 C 468.605469 527.746094 471.84375 533.652344 470.191406 539.535156 C 469.335938 542.597656 466.203125 545.753906 461.410156 546.683594 C 451.824219 548.515625 437.753906 540.722656 426.734375 561.394531 C 418.613281 576.59375 417.320312 574.351562 415.828125 575.527344 C 414.414062 576.664062 413.484375 583.277344 413.800781 585.667969 C 414.128906 588.300781 415.714844 589.460938 415.402344 591.609375 C 412.414062 603.078125 394.296875 601.25 388.777344 610.472656 C 378.253906 610.320312 376.84375 605.480469 369.113281 603.867188 C 362.824219 602.511719 356.734375 608.171875 359.429688 609.007812 C 379.886719 615.324219 387.535156 605.367188 390.867188 626.628906 C 391.277344 630.660156 398.207031 630.605469 393.261719 634.113281 C 388.582031 637.152344 387.96875 636.976562 388.078125 642.925781 C 388.175781 647.722656 389.53125 652.574219 390.214844 658.046875 C 376.359375 648.1875 348.949219 663.738281 349.898438 668.683594 C 350.417969 671.109375 363.90625 671.027344 366.382812 670.996094 C 378.824219 670.859375 373.710938 669.125 370.570312 675.023438 C 368.707031 678.476562 383.375 677.5 385.828125 680.667969 C 386.496094 681.84375 385.289062 685.367188 381.171875 685.785156 C 376.726562 686.035156 371.324219 684.398438 370.757812 690.296875 C 370.667969 691.164062 371.757812 691.753906 372.453125 691.136719 C 372.761719 690.835938 379.601562 696.367188 382.019531 699.457031 C 381.90625 700.550781 383.1875 700.730469 384.589844 701.105469 C 382.417969 702.609375 381.136719 704.773438 380.0625 706.9375 C 376.539062 714.027344 381.648438 717.8125 379.242188 720.945312 C 376.707031 723.558594 372.683594 722.949219 373.652344 724.894531 C 374 725.601562 381.335938 728.488281 383.414062 731.226562 C 384.226562 732.296875 389.375 730.835938 377.191406 724.609375 C 381.523438 722.871094 382.582031 720.625 381.652344 716.613281 C 380.625 712.125 380.089844 711.457031 382.234375 707.132812 C 381.617188 708.503906 383.417969 703.519531 387.328125 702.007812 C 390.117188 701.136719 399.6875 703.820312 408.160156 697.625 C 408.964844 697.035156 408.335938 695.417969 407.027344 695.933594 C 403.550781 697.253906 397.199219 699.679688 393.554688 699.53125 C 387.210938 699.269531 388.820312 700.300781 384.066406 698.820312 C 383.242188 697.265625 378.335938 692.859375 376.324219 691.257812 C 372.953125 688.558594 372.753906 689.515625 373.390625 688.65625 C 375.730469 686.382812 382.953125 689.855469 386.320312 685.554688 C 393.664062 676.269531 377.851562 676.691406 372.910156 675.074219 C 378.179688 666.800781 387.09375 677.769531 395.820312 678.371094 C 398.867188 678.578125 397.894531 677.417969 398.472656 676.746094 C 399.53125 675.589844 404.425781 670.625 407.78125 669.894531 C 413.277344 668.742188 432.199219 671.910156 428.5 668.066406 C 423.613281 662.96875 418.019531 662.167969 411.003906 662.445312 C 396.976562 663.015625 401.382812 663.949219 399.117188 661.652344 C 397.558594 660.058594 394.605469 659.351562 392.386719 659.089844 C 391.839844 653.363281 388.734375 640.824219 390.707031 638.410156 C 392.921875 636.078125 397.914062 635.121094 396.921875 630.941406 C 396.433594 628.941406 393.917969 628.234375 393.125 627.214844 C 392.71875 626.519531 392.207031 618.226562 388.550781 613.839844 C 388.851562 613.917969 388.625 613.972656 392.867188 612.464844 C 394.378906 612.402344 417.847656 610.472656 417.890625 610.453125 C 421.128906 608.859375 412.742188 605.792969 403.484375 607.265625 C 397.109375 608.289062 390.246094 611.710938 391.566406 610.144531 C 397.914062 603.375 413.796875 604.21875 417.308594 592.421875 C 418.433594 588.628906 415.023438 587.988281 415.90625 582.246094 C 417.460938 572.230469 416.828125 581.929688 424.71875 569.246094 C 429.929688 560.894531 432.214844 550.140625 446.871094 548.8125 C 453.003906 548.429688 468.265625 552.03125 472.132812 540.210938 C 474.160156 534 469.445312 525.820312 484.066406 520.730469 C 494.460938 516.796875 509.222656 520.371094 519.039062 513.503906 C 533.816406 503.171875 527.578125 484.71875 537.257812 474.785156 C 538.824219 475.605469 540.179688 475.941406 541.933594 476.234375 C 542.726562 476.367188 542.636719 475.804688 545.867188 472.007812 C 548.339844 469.101562 550.910156 466.195312 552.546875 462.945312 C 556.042969 456.070312 552.183594 449.226562 541.875 450.835938 " fill-opacity="1" fill-rule="nonzero"/><g clip-path="url(#09b3fba4c8)"><path fill="#000000" d="M 314.375 570.902344 C 314.285156 570.929688 314.613281 570.816406 314.375 570.902344 Z M 531.816406 577.867188 C 531.800781 577.652344 531.800781 577.695312 531.816406 577.867188 Z M 285.542969 595.707031 C 285.527344 595.769531 285.535156 595.742188 285.542969 595.703125 Z M 282.128906 603.375 C 282.128906 603.335938 282.136719 603.3125 282.128906 603.375 Z M 224.5625 608.007812 C 224.566406 608.019531 224.535156 607.953125 224.5625 608.007812 Z M 228.648438 623.726562 C 228.648438 623.71875 228.644531 623.707031 228.640625 623.699219 C 228.644531 623.703125 228.644531 623.714844 228.648438 623.726562 Z M 370.871094 754.582031 C 370.839844 754.5 370.835938 754.496094 370.871094 754.582031 Z M 492.859375 758.804688 C 492.914062 758.945312 492.847656 758.765625 492.808594 758.660156 C 492.824219 758.707031 492.839844 758.757812 492.859375 758.804688 Z M 506.039062 835.460938 C 505.964844 835.484375 506.007812 835.472656 506.074219 835.449219 C 506.0625 835.453125 506.046875 835.457031 506.039062 835.460938 Z M 545.742188 900.648438 C 545.847656 900.609375 545.800781 900.625 545.742188 900.648438 Z M 467.113281 921.042969 C 467.203125 921.015625 467.21875 921.011719 467.113281 921.042969 Z M 392.414062 931.632812 C 392.660156 931.546875 392.632812 931.554688 392.414062 931.632812 Z M 406.441406 941.566406 C 406.746094 941.453125 406.667969 941.480469 406.441406 941.566406 Z M 330.601562 954.914062 C 330.738281 954.933594 330.78125 954.945312 330.601562 954.914062 Z M 323.941406 949.171875 C 323.847656 949.179688 323.847656 949.179688 323.941406 949.171875 Z M 302.753906 944.175781 C 299.785156 942.085938 304.070312 944.761719 308.320312 947.285156 C 306.695312 946.617188 304.933594 945.707031 302.753906 944.175781 Z M 277.402344 924.089844 C 277.722656 924.25 277.703125 924.246094 277.402344 924.089844 Z M 269.503906 921.511719 C 269.570312 921.523438 269.621094 921.535156 269.503906 921.511719 Z M 290.953125 936.257812 C 275.5 930.984375 261.195312 925.90625 243.464844 917.472656 C 264.8125 923.0625 274.28125 916.742188 289.324219 934.007812 C 291.839844 936.902344 291.757812 936.527344 290.953125 936.257812 Z M 230.472656 909.851562 C 230.570312 909.941406 230.574219 909.945312 230.472656 909.851562 Z M 226.871094 908.445312 C 227.234375 909.246094 227.5 909.25 226.511719 908.691406 C 226.632812 908.609375 226.75 908.527344 226.871094 908.445312 Z M 552.980469 897.113281 C 552.757812 897.269531 552.730469 897.28125 552.980469 897.113281 Z M 558.496094 892.15625 C 558.421875 892.246094 558.429688 892.222656 558.496094 892.15625 Z M 556.175781 892.523438 C 559.117188 891.882812 558.652344 891.976562 558.367188 892.300781 C 544.011719 908.105469 521.472656 901.28125 474.359375 916.464844 C 427.0625 931.699219 356.277344 968.300781 319.996094 951.355469 C 344.039062 951.300781 372.101562 938.75 392.660156 931.546875 C 392.621094 931.5625 407.539062 924.71875 472.136719 913.054688 C 540.613281 900.710938 544.363281 895.070312 556.175781 892.523438 Z M 580.1875 881.289062 C 580.167969 881.394531 580.164062 881.414062 580.1875 881.289062 Z M 413.917969 868.984375 C 414.078125 869.019531 414.089844 869.023438 413.917969 868.984375 Z M 580.101562 869.707031 C 587.902344 861.671875 583.816406 864.992188 582.003906 869.132812 C 581.425781 870.464844 581.109375 873.316406 580.964844 874.734375 C 579.957031 884.710938 581.542969 885.703125 563.636719 889.007812 C 573.265625 876.234375 570.890625 879.203125 580.101562 869.707031 Z M 424.566406 864.464844 C 424.433594 864.605469 424.449219 864.585938 424.566406 864.464844 Z M 387.84375 861.9375 C 388.046875 861.972656 388.089844 861.980469 387.84375 861.9375 Z M 341.496094 860.746094 C 341.359375 860.75 341.351562 860.753906 341.496094 860.746094 Z M 373.265625 853.21875 C 373.480469 853.253906 373.5 853.253906 373.265625 853.21875 Z M 288.84375 852.042969 C 288.851562 852.148438 288.851562 852.15625 288.84375 852.042969 Z M 365.335938 849.667969 C 365.386719 849.753906 365.386719 849.753906 365.335938 849.667969 Z M 365.195312 847.144531 C 365.179688 847.175781 365.167969 847.203125 365.152344 847.234375 Z M 432.777344 844.601562 C 432.742188 844.765625 432.738281 844.785156 432.777344 844.601562 Z M 374.980469 843.882812 C 375.113281 843.90625 375.082031 843.90625 374.980469 843.882812 Z M 374.855469 843.859375 C 377.96875 844.570312 385.246094 848.8125 374.1875 853.386719 C 357.238281 850.390625 367.25 842.527344 374.855469 843.859375 Z M 597.976562 843.359375 C 597.988281 843.464844 597.984375 843.480469 597.976562 843.359375 Z M 291.125 862.929688 C 291.140625 858.765625 291.324219 852.226562 289.835938 842.316406 C 298.011719 849.414062 309.78125 898.582031 321.214844 922.796875 C 304.15625 903.394531 291.066406 888.523438 291.125 862.929688 Z M 589.546875 859.066406 C 598.65625 847.375 596.496094 841.164062 597.085938 841.621094 C 598.144531 842.6875 598.117188 843.953125 597.835938 845.535156 C 595.683594 854.722656 587.75 861.511719 585.996094 863.351562 C 587.21875 861.957031 588.40625 860.53125 589.546875 859.066406 Z M 589.75 840.460938 C 589.65625 840.46875 589.644531 840.46875 589.75 840.460938 Z M 290.484375 840.171875 C 290.640625 840.292969 290.738281 840.390625 290.484375 840.171875 Z M 532.226562 838.050781 C 532.480469 838.101562 532.460938 838.101562 532.226562 838.050781 Z M 524.488281 833.394531 C 524.648438 833.429688 524.660156 833.433594 524.488281 833.394531 Z M 511.804688 833.792969 C 516.929688 832.59375 516.21875 833.140625 517.136719 834.03125 C 520.726562 837.492188 487.316406 878.28125 475.5625 886.320312 C 471.921875 888.699219 468.875 887.976562 467.429688 886.128906 C 464.363281 880.953125 472.691406 865.292969 476.078125 860.359375 C 481.792969 852 490.4375 844.925781 498.0625 838.789062 C 503.984375 835.996094 508.113281 834.648438 511.804688 833.792969 Z M 530.445312 831.605469 C 530.582031 831.800781 530.621094 831.859375 530.445312 831.605469 Z M 480.277344 844.320312 C 512.714844 826.648438 505.546875 829.554688 496.96875 837.039062 C 488.980469 840.667969 476.234375 848.78125 466.753906 853.628906 C 454.046875 860.121094 471.167969 849.285156 480.277344 844.320312 Z M 265.4375 830.929688 C 265.410156 831.0625 265.394531 831.105469 265.4375 830.929688 Z M 287.609375 830.660156 C 292.15625 843.003906 291.8125 841.328125 290.660156 840.328125 C 288.554688 838.433594 289.960938 840.585938 287.609375 830.660156 Z M 234.652344 889.773438 C 245.316406 870.289062 258.070312 849.835938 265.757812 829.125 C 263.019531 845.488281 253.71875 859.710938 245.027344 874.546875 C 239.804688 883.453125 236.019531 896.921875 228.28125 904.585938 C 228.597656 900.613281 232.070312 894.5 234.652344 889.773438 Z M 516.765625 827.921875 C 517.964844 828.351562 518.359375 829.589844 518.359375 830.867188 C 517.152344 830.910156 517.308594 831.121094 516.945312 830.164062 C 516.695312 829.320312 516.664062 828.769531 516.765625 827.921875 Z M 514.730469 827.660156 C 513.8125 834.371094 519.886719 828.074219 503.921875 834.050781 C 509.992188 829.097656 510.007812 827.78125 514.730469 827.660156 Z M 521.105469 824.582031 C 525.128906 825.519531 529.226562 829.25 531.148438 832.796875 C 532.683594 835.582031 530.472656 831.671875 521.429688 830.910156 C 519.910156 830.78125 520.664062 831.296875 520.226562 829.214844 C 519.925781 827.824219 518.980469 826.550781 517.398438 825.972656 C 518.101562 824.851562 518.898438 824.25 521.105469 824.582031 Z M 280.789062 824.175781 C 280.804688 824.371094 280.804688 824.421875 280.789062 824.175781 Z M 437.84375 823.78125 C 437.796875 824 437.796875 824.015625 437.84375 823.78125 Z M 455.3125 818.992188 C 455.242188 819.046875 455.160156 819.097656 455.3125 818.992188 Z M 281.824219 817.808594 C 284.011719 824.457031 285.695312 831.007812 286.746094 836.390625 C 281.902344 830.875 279.132812 824.578125 281.824219 817.808594 Z M 268.921875 810.933594 C 268.898438 811.058594 268.890625 811.085938 268.921875 810.933594 Z M 448.960938 807.195312 C 448.9375 807.308594 448.9375 807.308594 448.960938 807.195312 Z M 456.0625 802.054688 C 455.917969 802.109375 455.871094 802.117188 456.0625 802.054688 Z M 456.183594 802.007812 C 456.09375 802.046875 456.050781 802.058594 456.183594 802.007812 Z M 462.621094 796.769531 C 462.535156 796.871094 462.535156 796.871094 462.621094 796.769531 Z M 270.441406 790.417969 C 270.453125 790.585938 270.453125 790.59375 270.441406 790.417969 Z M 267.132812 773.878906 C 267.179688 774 267.179688 774.003906 267.132812 773.878906 Z M 394.644531 760.46875 C 394.554688 760.476562 394.546875 760.476562 394.644531 760.46875 Z M 380.5625 760.199219 C 380.445312 760.203125 380.4375 760.203125 380.5625 760.199219 Z M 376.320312 760.03125 C 376.5 760.066406 376.515625 760.078125 376.320312 760.03125 Z M 357.199219 759.75 C 356.921875 759.765625 356.957031 759.761719 357.199219 759.75 Z M 396.640625 758.304688 C 396.429688 758.316406 396.484375 758.308594 396.640625 758.304688 Z M 459.9375 800.933594 C 463.820312 799.664062 465.960938 796.039062 467.917969 792.410156 C 473.394531 782.296875 478.933594 767.414062 482.691406 756.542969 C 480.160156 764.019531 466.425781 801.554688 462.925781 808.601562 C 463.40625 807.644531 456.457031 823.558594 450.585938 818.699219 C 447.636719 815.886719 447.964844 812.253906 448.980469 807.105469 C 449.257812 805.824219 448.972656 806.191406 450.558594 805.113281 C 449.632812 805.726562 451.792969 804.257812 453.683594 803.152344 C 456.082031 801.757812 457.695312 801.683594 459.9375 800.933594 Z M 374.039062 754.636719 C 373.859375 754.765625 373.839844 754.773438 374.039062 754.636719 Z M 370.851562 754.335938 C 370.8125 754.363281 370.796875 754.371094 370.851562 754.335938 Z M 375.496094 753.898438 C 375.554688 753.972656 375.59375 754.042969 375.496094 753.898438 Z M 375.140625 753.78125 L 375.128906 753.800781 Z M 375.121094 753.777344 C 374.226562 754.625 372.964844 755.3125 371.484375 756.0625 C 371.125 755.347656 370.707031 754.109375 370.9375 754.769531 C 370.503906 753.796875 374.015625 753.613281 375.121094 753.777344 Z M 428.546875 752 C 428.457031 752.027344 428.457031 752.027344 428.546875 752 Z M 456.367188 820.742188 C 462.132812 817.167969 467.320312 804.324219 469.691406 797.960938 C 481.25 766.945312 484.199219 759.066406 487.414062 748.570312 C 495.125 774.757812 512.761719 811.0625 513.523438 818.757812 C 513.625 821.882812 511.953125 824.023438 509.011719 826.890625 C 504.671875 828.460938 451.734375 855.9375 457.003906 859.566406 C 459.011719 860.910156 479.351562 849.011719 480.910156 848.105469 C 500.425781 836.8125 481.554688 846.207031 471.535156 863.734375 C 469.488281 867.320312 463.210938 880.261719 465.066406 885.914062 C 466.179688 889.300781 471.238281 891.746094 476.828125 887.925781 C 489.230469 879.523438 517.152344 844.25 519.578125 835.867188 C 526.0625 839.808594 537.894531 841.25 545.542969 841.890625 C 576.699219 844.480469 586.824219 839.277344 594.75 840.625 C 596.808594 853.78125 576.097656 868.84375 564.292969 884.699219 C 558.25 892.816406 563.15625 887.738281 551.070312 891.726562 C 481.480469 914.375 443.808594 911.484375 391.746094 929.710938 C 373.410156 936.136719 337.507812 951.636719 315.527344 949.074219 C 308.910156 945.445312 302.550781 941.109375 295.957031 938.207031 C 294.304688 936.523438 293.214844 935.304688 291.820312 933.738281 C 273.214844 912.816406 266.277344 922.367188 240.378906 914.449219 C 236.097656 913.140625 230.046875 911.011719 228.546875 907.148438 C 236.003906 900.773438 240.304688 888.484375 244.796875 879.3125 C 244.773438 879.351562 256.851562 858.265625 258.03125 856.042969 C 268.953125 835.503906 266.757812 830.164062 270.566406 812.996094 C 276.542969 786.101562 264.941406 766.984375 281.648438 814.164062 C 280.933594 814.398438 272.757812 825.75 287.414062 840.082031 C 288.539062 846.863281 289 852.625 289.101562 858.292969 C 289.691406 892.175781 299.515625 900.773438 325.015625 930.265625 C 325.824219 931.191406 327.246094 930.144531 326.703125 929.128906 C 314.878906 907.117188 315.90625 899.867188 295.878906 846.9375 C 308.929688 855.839844 330.457031 864.773438 346.09375 862.105469 C 383.007812 855.941406 366.746094 855.109375 380.113281 856.210938 C 378.113281 859.683594 377.6875 860.136719 378.300781 860.816406 C 381.636719 864.582031 404.972656 865.527344 408.421875 867.851562 C 409.792969 868.785156 410.980469 870.578125 413.640625 871.003906 C 424.117188 873.027344 430.519531 860.84375 433.4375 850.597656 C 438.539062 832.746094 434.214844 818.726562 446.714844 808 C 446.785156 807.929688 446.261719 810.089844 446.25 812.90625 C 446.21875 819.0625 451.054688 824.042969 456.367188 820.742188 Z M 252.714844 759.171875 C 251.660156 755.144531 250.871094 751.054688 250.445312 746.917969 C 267.699219 765.65625 274.503906 787.023438 268.371094 813.433594 C 266.828125 796.851562 256.996094 775.554688 252.714844 759.171875 Z M 296.589844 743.242188 C 296.769531 743.398438 296.769531 743.398438 296.589844 743.242188 Z M 484.667969 724.410156 C 484.679688 724.597656 484.675781 724.582031 484.667969 724.410156 Z M 272.71875 721.972656 C 272.863281 722.097656 272.851562 722.089844 272.71875 721.972656 Z M 485.171875 713.671875 C 485.140625 713.816406 485.140625 713.816406 485.171875 713.671875 Z M 493.597656 701.457031 C 493.738281 704.632812 493.140625 707.34375 492.695312 711.015625 C 490.164062 731.542969 492.785156 719.855469 486.761719 737.988281 C 483.863281 725.117188 481.902344 707.371094 493.597656 701.457031 Z M 231.558594 696.53125 C 231.570312 696.636719 231.570312 696.648438 231.558594 696.53125 Z M 231.445312 691.414062 C 231.382812 685.816406 229.894531 690.703125 241.667969 700.308594 C 254.378906 710.695312 265.355469 713.992188 278.179688 727.433594 C 288.933594 738.730469 298.1875 749.917969 312.46875 755.949219 C 321.980469 759.980469 355.910156 765.308594 370.183594 758.953125 C 371.164062 758.523438 370.222656 758.675781 372.074219 760.207031 C 377.03125 764.300781 384.183594 761.304688 394.492188 760.480469 C 419.820312 758.828125 445.777344 751.476562 462.925781 732.449219 C 476.140625 717.820312 477.617188 698.703125 466.183594 744.574219 C 454.945312 789.5625 460.28125 768.214844 450.742188 794.148438 C 449.457031 797.648438 448.292969 801.199219 447.417969 804.824219 C 428.03125 819.097656 439.53125 841.285156 426.375 862.023438 C 423.660156 866.253906 419.898438 869.261719 414.835938 869.085938 C 410.621094 868.839844 411.65625 865.90625 405.613281 864.644531 C 396.765625 862.824219 387.691406 862.890625 380.550781 859.707031 C 381.40625 858.191406 381.742188 857.25 382.796875 855.894531 C 383.285156 855.265625 382.753906 854.339844 382.015625 854.292969 C 373.386719 853.707031 380.953125 854.492188 382.167969 849.476562 C 382.980469 846.167969 378.390625 840.523438 370.558594 841.84375 C 362.320312 843.261719 358.285156 851.367188 370.625 854.683594 C 361.3125 857.691406 343.160156 860.589844 341.355469 860.757812 C 328.589844 861.507812 306.777344 852.59375 294.574219 843.484375 C 280.390625 805.847656 274.410156 787.09375 268.105469 765.617188 C 259.433594 736.082031 231.839844 725.394531 231.445312 691.414062 Z M 231.601562 684.488281 C 231.65625 684.636719 231.644531 684.605469 231.601562 684.488281 Z M 229.011719 679.285156 C 229.027344 679.476562 229.019531 679.4375 229.011719 679.285156 Z M 504.722656 677.867188 C 504.738281 678.058594 504.734375 678.050781 504.722656 677.867188 Z M 504.714844 677.730469 C 504.722656 677.855469 504.714844 677.835938 504.714844 677.730469 Z M 214.863281 677.097656 C 214.777344 677.132812 214.773438 677.132812 214.863281 677.097656 Z M 493.128906 675.984375 C 493.097656 676.019531 493.074219 676.050781 493.039062 676.085938 Z M 202.351562 674.746094 L 202.410156 674.792969 Z M 501.457031 672.050781 C 501.566406 672.070312 501.542969 672.066406 501.457031 672.050781 Z M 501.316406 672.027344 C 509.726562 674.171875 500.542969 700.648438 497.648438 708.816406 C 493.527344 720.476562 493.40625 721.960938 494.851562 710.261719 C 495.042969 708.695312 496.484375 700.046875 495.054688 699.078125 C 493.730469 698.183594 489.121094 701.691406 487.167969 704.070312 C 481.058594 711.488281 482.144531 724.535156 483.835938 733.898438 C 485.625 743.851562 486.441406 739.058594 482.773438 749.925781 C 472.734375 779.730469 466.734375 790.25 467.332031 789.09375 C 460.34375 802.976562 460.367188 796.210938 449.988281 803.042969 C 452.652344 793.5 457.777344 782.382812 459.5625 777.695312 C 465.945312 761.0625 481.785156 668.828125 501.316406 672.027344 Z M 226.175781 671.886719 C 226.058594 671.960938 226.058594 671.960938 226.175781 671.886719 Z M 506.199219 660.285156 C 506.238281 660.398438 506.238281 660.402344 506.199219 660.285156 Z M 224.277344 653.070312 C 224.230469 653.269531 224.230469 653.269531 224.277344 653.070312 Z M 196.105469 652.710938 C 195.855469 652.882812 195.910156 652.832031 196.105469 652.710938 Z M 196.671875 652.402344 C 196.40625 652.496094 196.472656 652.46875 196.671875 652.402344 Z M 199.402344 652.296875 C 199.621094 652.339844 199.664062 652.351562 199.402344 652.296875 Z M 197.726562 652.160156 C 197.496094 652.175781 197.554688 652.171875 197.726562 652.160156 Z M 213.167969 651.339844 C 213.144531 651.480469 213.132812 651.535156 213.167969 651.339844 Z M 214.488281 647.546875 C 214.386719 647.777344 214.328125 647.871094 214.488281 647.546875 Z M 219.335938 644.6875 C 223.542969 645.71875 226.246094 651.457031 222.71875 656.734375 C 221.726562 658.21875 219.40625 660.570312 217.402344 661.351562 C 214.875 662.109375 213.429688 660.242188 212.273438 657.859375 C 212.953125 657.199219 212.199219 643.59375 219.335938 644.6875 Z M 507.3125 643.914062 C 507.273438 644.105469 507.261719 644.144531 507.3125 643.914062 Z M 230.914062 634.652344 C 230.925781 634.851562 230.925781 634.976562 230.914062 634.652344 Z M 238.542969 630.132812 C 238.371094 630.144531 238.371094 630.144531 238.542969 630.132812 Z M 515.433594 628.871094 C 515.378906 628.9375 515.367188 628.953125 515.433594 628.871094 Z M 520.277344 623.25 C 520.3125 623.210938 517.964844 635.269531 512.210938 632.765625 C 514.527344 629.671875 517.367188 626.878906 520.277344 623.25 Z M 250.65625 621.613281 C 250.355469 621.714844 250.398438 621.699219 250.65625 621.613281 Z M 227.671875 621.09375 C 228.101562 622.203125 230.332031 628.296875 229.734375 627.816406 C 227.660156 625.875 227.082031 623.296875 227.671875 621.09375 Z M 253.808594 619.308594 C 253.820312 619.308594 253.628906 619.5 253.808594 619.308594 Z M 264.972656 618.28125 C 264.875 618.285156 264.875 618.285156 264.972656 618.28125 Z M 249.726562 615.117188 C 249.816406 615.191406 249.851562 615.226562 249.726562 615.117188 Z M 248.570312 613.792969 C 248.671875 613.933594 248.691406 613.96875 248.570312 613.792969 Z M 270.8125 611.082031 C 270.78125 611.214844 270.777344 611.230469 270.8125 611.082031 Z M 254.082031 609.515625 C 254.242188 609.652344 254.214844 609.632812 254.082031 609.515625 Z M 248.789062 609.273438 C 248.71875 609.417969 248.71875 609.417969 248.789062 609.273438 Z M 247.277344 607.796875 C 241.863281 617.273438 255.898438 619.933594 253.800781 619.304688 C 252.253906 621.1875 249.96875 622.253906 247.160156 622.09375 C 245.78125 622.027344 245.695312 624.074219 247.023438 624.144531 C 250.152344 624.324219 252.832031 623.320312 254.984375 621.054688 C 256.714844 619.230469 254.691406 619.902344 259.796875 620.304688 C 262.875 620.546875 262.910156 620.195312 262.339844 620.601562 C 254.722656 625.671875 240.847656 632.546875 232.277344 629.296875 C 230.074219 617.453125 226.941406 619.933594 230.585938 615.660156 C 234.847656 611.042969 241.714844 608.382812 247.277344 607.796875 Z M 249.167969 608.613281 C 249.753906 607.601562 249.71875 607.738281 250.933594 607.972656 C 255.691406 609.152344 256.878906 613.28125 254.972656 617.488281 C 249.59375 616.097656 246.207031 613.269531 249.167969 608.613281 Z M 309.023438 604.503906 C 308.914062 604.507812 308.914062 604.507812 309.023438 604.503906 Z M 264.707031 603.847656 C 264.828125 603.875 264.800781 603.867188 264.707031 603.847656 Z M 521.691406 603.539062 C 522.113281 603.5625 522.597656 604.792969 522.761719 605.242188 C 521.757812 624.15625 520.195312 618.246094 510.152344 632.097656 C 511.222656 628.1875 518.15625 604.523438 521.691406 603.539062 Z M 521.890625 603.519531 C 521.792969 603.523438 521.847656 603.519531 521.890625 603.519531 Z M 262.359375 603.546875 C 271.210938 603.972656 274.652344 610.578125 265.472656 618.238281 C 263.285156 618.441406 259.960938 618.378906 257.027344 617.914062 C 259.210938 612.757812 257.136719 607.398438 251.753906 606.054688 C 254.929688 604.0625 258.605469 603.363281 262.359375 603.546875 Z M 521.53125 603.492188 C 521.65625 603.507812 521.804688 603.542969 521.53125 603.492188 Z M 522.792969 590.40625 C 522.808594 590.605469 522.808594 590.605469 522.792969 590.40625 Z M 203.894531 588.542969 C 203.855469 588.742188 203.863281 588.703125 203.894531 588.542969 Z M 218.132812 583 C 218.308594 583.148438 218.324219 583.171875 218.132812 583 Z M 206.496094 582.214844 C 206.417969 582.3125 206.390625 582.335938 206.496094 582.214844 Z M 207.625 581.1875 C 207.417969 581.320312 207.464844 581.285156 207.625 581.1875 Z M 212.480469 580.464844 C 218.636719 581.894531 219.941406 584.671875 220.519531 587.296875 C 222.0625 594.449219 217.242188 596.097656 224.71875 614.015625 C 227.042969 619.574219 226.546875 617.226562 225.753906 620.292969 C 224.660156 624.519531 226.335938 628.636719 230.457031 630.734375 C 232.367188 642.554688 229.046875 655.179688 228.101562 667.441406 C 227.878906 670.390625 228.363281 669.019531 226.691406 669.390625 C 224.015625 669.976562 220.804688 674.882812 214.917969 677.078125 C 200.199219 681.9375 190.710938 660.027344 194.808594 654.027344 C 198.011719 649.328125 204.578125 654.699219 209.847656 657.445312 C 216.144531 673.5625 232.898438 653.625 223.371094 644.621094 C 218.695312 640.214844 211.914062 642.5625 210.742188 653.652344 C 208.179688 644.480469 209.175781 640.804688 205.417969 619.140625 C 203.191406 606.117188 199.53125 578.039062 212.480469 580.464844 Z M 333.925781 575.585938 C 333.777344 575.683594 333.765625 575.691406 333.925781 575.585938 Z M 531.09375 573.625 C 533.859375 570.921875 532.136719 637.421875 515.066406 657.253906 C 502.210938 671.449219 504.859375 651.96875 509.769531 633.515625 C 510.25 634.601562 519.433594 641.449219 523.363281 618.746094 C 526.019531 613.949219 526.21875 610.488281 525.039062 605.714844 C 524.605469 603.957031 526.070312 585.0625 523.226562 585.269531 C 525.6875 580.910156 527.730469 577.003906 531.09375 573.625 Z M 339.097656 571.125 C 339.039062 571.191406 339.035156 571.199219 339.097656 571.125 Z M 339.226562 570.984375 C 339.058594 571.171875 339.105469 571.105469 339.226562 570.984375 Z M 396.726562 570.160156 C 396.550781 570.175781 396.519531 570.171875 396.726562 570.160156 Z M 407.667969 567.710938 C 407.546875 567.71875 407.554688 567.71875 407.667969 567.710938 Z M 332.03125 567.011719 C 331.898438 567.023438 331.898438 567.023438 332.03125 567.011719 Z M 476.992188 538.296875 C 476.890625 538.40625 476.914062 538.378906 476.992188 538.296875 Z M 501.945312 511.148438 C 516.074219 503.6875 519.847656 502.949219 534.1875 484.457031 C 532.480469 501.59375 539.820312 517.746094 539.351562 534.285156 C 538.792969 554.824219 520.566406 561.597656 516.394531 579.546875 C 515.039062 585.339844 516.84375 591.199219 517.535156 591.851562 C 511.242188 602.070312 509.371094 616.269531 505.027344 627.980469 C 502.808594 633.96875 495.078125 649.511719 489.679688 666.484375 C 472.464844 720.542969 464.621094 752.292969 392.792969 758.574219 C 383.835938 759.382812 376.519531 762.230469 372.777344 758.039062 C 372.285156 757.484375 375.175781 756.976562 376.980469 754.761719 C 377.996094 753.515625 377.453125 751.488281 373.632812 751.664062 C 367.40625 751.964844 368.527344 754.558594 369.640625 756.957031 C 360.957031 760.960938 347.640625 760.089844 338.019531 759.085938 C 302.808594 755.433594 300.640625 746.671875 275.734375 721.992188 C 263.710938 710.0625 237.515625 700.632812 231.660156 684.652344 C 230.773438 681.898438 231.332031 675.855469 229.960938 671.804688 C 230.089844 662.121094 232.53125 652.148438 233.03125 641.355469 C 233.847656 623.363281 227.441406 636.828125 247.121094 630.441406 C 252.664062 628.636719 261.011719 624.441406 266.324219 620.21875 C 288.453125 618.222656 281.800781 597.988281 289.042969 586.621094 C 295.609375 576.304688 324.542969 564.230469 341.496094 567.507812 C 341.367188 567.484375 341.699219 567.386719 340.519531 569.238281 C 333.761719 579.945312 312.574219 583.152344 305.246094 593.808594 C 303.101562 596.941406 300.167969 605.976562 307.609375 606.570312 C 321.019531 607.6875 343.285156 584.695312 369.640625 575.425781 C 381.035156 571.546875 391.769531 570.121094 403.722656 569.863281 C 423.953125 569.378906 425.925781 561.070312 438.621094 552.488281 C 451.988281 543.859375 457.804688 548.789062 469.132812 545.664062 C 482.355469 541.992188 481.714844 530.480469 486.234375 523.1875 C 489.304688 518.285156 496.890625 513.816406 501.945312 511.148438 Z M 536.796875 480.820312 C 536.769531 480.9375 536.769531 480.945312 536.796875 480.820312 Z M 539.933594 467.375 C 538.667969 469.460938 537.644531 471.402344 536.542969 474.257812 C 534.855469 478.617188 535.539062 479.054688 534.191406 481 C 510.679688 515.242188 489.679688 505.191406 481.417969 528.917969 C 474.632812 548.425781 464.554688 543.460938 450.515625 545.398438 C 437.175781 547.234375 428.960938 559.441406 419.476562 564.515625 C 401.867188 573.878906 387.652344 556.160156 331.703125 594.039062 C 335.140625 591.773438 309.648438 609.03125 305.363281 603.457031 C 304.207031 601.417969 305.003906 595.910156 310.128906 591.46875 C 314.871094 587.332031 323.664062 583.84375 330.75 579.925781 C 341.84375 573.773438 345.394531 566.363281 343.246094 565.828125 C 325.847656 561.46875 294.207031 573.886719 286.664062 586.570312 C 279.980469 597.777344 285.875 614.492188 269.054688 617.742188 C 282.550781 603.6875 258.949219 596.082031 248.9375 605.6875 C 243.46875 605.570312 232.863281 608.726562 227.765625 615.949219 C 225.699219 611.074219 224.40625 608.207031 223.214844 603.4375 C 220.816406 593.789062 225.984375 585.824219 218.488281 580.742188 C 216.988281 579.730469 213.238281 578.03125 210.117188 578.25 C 194.4375 579.386719 204.015625 619.84375 205.371094 630.023438 C 205.914062 634.140625 206.28125 644.363281 208.457031 653.070312 C 208.976562 655.128906 209.714844 654.933594 205.679688 652.699219 C 183.003906 640.09375 191.105469 677.824219 209.164062 679.796875 C 217.425781 680.742188 223.160156 673.976562 226.242188 671.839844 C 228.207031 670.613281 227.824219 671.871094 227.988281 675.398438 C 228.382812 683.976562 229.28125 676.902344 229.421875 693.890625 C 229.691406 723.171875 255.988281 737.136719 265.464844 764.070312 C 267.632812 770.515625 264.28125 758.230469 249.972656 743.429688 C 249.523438 742.960938 248.90625 743.003906 248.527344 743.339844 C 248.074219 743.734375 248.046875 743.84375 248.527344 748.292969 C 251.070312 771.289062 267.070312 796.613281 266.582031 820.214844 C 255.914062 856.382812 224.757812 895.292969 226.265625 906.351562 C 224.234375 907.90625 223.550781 907.808594 223.496094 908.671875 C 223.351562 911.171875 256.019531 925.375 259.730469 926.910156 C 277.207031 934.140625 289.007812 937.605469 293.472656 939.367188 C 296.75 940.667969 300.847656 947.941406 311.765625 950.515625 C 314.972656 951.265625 314.222656 950.71875 315.636719 951.46875 C 360.339844 975.289062 438.761719 924.296875 500.933594 911.40625 C 535.097656 904.335938 549.289062 906.9375 561.753906 891.441406 C 586.269531 886.945312 580.890625 885.765625 583.460938 871.503906 C 584.351562 867.550781 587.355469 864.8125 590.320312 861.9375 C 595.246094 857.148438 604.273438 843.628906 597.652344 839.515625 C 596.058594 838.511719 596.796875 839.726562 596.074219 837.6875 C 595.707031 836.652344 593.804688 837.09375 594.195312 838.464844 C 589.796875 837.949219 582.84375 839.25 578.054688 839.914062 C 563.351562 841.980469 519.3125 839.136719 520.25 832.910156 C 529.378906 833.207031 532.203125 837.558594 533.566406 836.886719 C 534.933594 836.1875 533.492188 832.8125 532.757812 831.464844 C 529.304688 825.125 518.761719 818.285156 515.292969 825.605469 C 511.453125 825.519531 512.761719 827.109375 514.722656 822.921875 C 518.070312 815.730469 507.324219 800.191406 492.875 758.859375 C 492.917969 758.984375 492.75 758.492188 492.808594 758.660156 C 487.609375 743.609375 488.515625 744.910156 489.121094 742.75 C 493.085938 728.617188 491.128906 731.347656 494.507812 722.890625 C 498.976562 711.707031 507.636719 689.1875 506.71875 677.289062 C 505.988281 667.535156 495.796875 665.996094 487.394531 680.675781 C 502.925781 631.582031 503.378906 643.167969 511.75 612.65625 C 514.171875 603.820312 516.671875 595.417969 522.289062 588.828125 C 523.207031 587.824219 522.957031 600.46875 522.914062 601.828125 C 517.890625 598.414062 511.65625 619.714844 509.78125 625.984375 C 506.527344 636.851562 498.289062 666.738281 509.238281 663.910156 C 528.523438 658.816406 535.167969 599.40625 533.875 578.25 C 533.292969 568.453125 532.277344 569.558594 529.242188 572.582031 C 524.996094 576.773438 522.105469 583.765625 518.589844 588.902344 C 514.640625 574.808594 529.414062 562.78125 537.085938 549.96875 C 548.949219 530.078125 532.359375 504.460938 536.800781 480.796875 C 539.976562 475.929688 541.234375 472.105469 541.804688 468.019531 C 541.941406 467.03125 540.460938 466.480469 539.933594 467.375 " fill-opacity="1" fill-rule="nonzero"/></g></svg>