<svg xmlns="http://www.w3.org/2000/svg" xmlns:xlink="http://www.w3.org/1999/xlink" width="1080" zoomAndPan="magnify" viewBox="0 0 810 1439.999935" height="1920" preserveAspectRatio="xMidYMid meet" version="1.0"><defs><clipPath id="9aa46f4016"><path d="M 272.769531 651.164062 L 597.761719 651.164062 L 597.761719 867.804688 L 272.769531 867.804688 Z M 272.769531 651.164062 " clip-rule="nonzero"/></clipPath><clipPath id="03f97b52ae"><path d="M 251.269531 473.730469 L 583.402344 473.730469 L 583.402344 872.644531 L 251.269531 872.644531 Z M 251.269531 473.730469 " clip-rule="nonzero"/></clipPath></defs><path fill="#ffffff" d="M 535.144531 504.769531 C 535.1875 504.574219 535.195312 504.519531 535.144531 504.769531 Z M 328.207031 571.484375 C 328.199219 571.492188 328.191406 571.503906 328.21875 571.472656 C 328.207031 571.484375 328.207031 571.484375 328.207031 571.484375 Z M 521.25 598.292969 C 521.238281 598.074219 521.238281 598.113281 521.25 598.292969 Z M 342.980469 701.808594 C 343.085938 701.90625 343 701.824219 342.894531 701.726562 Z M 423.722656 713.8125 C 423.386719 713.832031 423.460938 713.828125 423.722656 713.8125 Z M 423.890625 713.800781 C 423.710938 713.8125 423.710938 713.8125 423.890625 713.800781 Z M 401.011719 704.429688 C 404.425781 705.3125 400.902344 709.023438 396.789062 710.566406 C 392.609375 708.246094 395.9375 703.59375 401.011719 704.429688 Z M 404.460938 657.351562 C 404.125 657.375 404.199219 657.367188 404.460938 657.351562 Z M 399.183594 650.695312 C 399.097656 650.730469 399.089844 650.730469 399.183594 650.695312 Z M 406.519531 648.597656 C 406.488281 648.597656 406.414062 648.632812 406.519531 648.597656 Z M 406.6875 648.457031 C 406.609375 648.550781 406.550781 648.597656 406.6875 648.457031 Z M 406.644531 648.394531 C 406.59375 648.511719 406.507812 648.65625 406.644531 648.394531 Z M 427.644531 638.203125 C 427.734375 638.222656 427.824219 638.238281 427.910156 638.261719 Z M 422.066406 637.5 C 423.734375 637.570312 435.476562 638.863281 420.351562 637.808594 C 414.742188 637.414062 417.226562 637.53125 416.910156 637.546875 C 418.628906 637.457031 420.34375 637.429688 422.066406 637.5 Z M 405.941406 635.515625 C 405.828125 635.523438 405.273438 635.546875 405.941406 635.515625 Z M 389.464844 633.757812 C 389.476562 633.890625 389.46875 633.855469 389.464844 633.757812 Z M 389.503906 633.722656 C 389.535156 633.808594 389.523438 633.789062 389.503906 633.722656 Z M 389.53125 633.683594 C 389.558594 633.730469 389.5625 633.734375 389.53125 633.683594 Z M 505.097656 631.765625 C 504.917969 631.972656 504.855469 632.035156 505.097656 631.765625 Z M 410.539062 630.304688 C 410.492188 630.535156 410.488281 630.550781 410.539062 630.304688 Z M 276.679688 620.214844 C 276.613281 620.5 276.613281 620.507812 276.679688 620.214844 Z M 520.445312 612.941406 C 520.398438 613.15625 520.410156 613.101562 520.445312 612.941406 Z M 341.171875 590.050781 C 340.9375 590.128906 340.992188 590.105469 341.171875 590.050781 Z M 336.03125 589.242188 C 336.074219 589.367188 336.0625 589.34375 336.03125 589.242188 Z M 336.832031 583.976562 C 336.785156 584.074219 336.769531 584.105469 336.832031 583.976562 Z M 424.832031 581.859375 C 424.703125 581.90625 424.691406 581.90625 424.832031 581.859375 Z M 269.386719 576.03125 C 269.148438 576.296875 269.089844 576.359375 269.386719 576.03125 Z M 355.867188 565.441406 C 355.671875 565.570312 355.667969 565.570312 355.867188 565.441406 Z M 443.257812 559.476562 C 434.832031 564.390625 427.054688 563.953125 443.257812 559.476562 Z M 345.707031 557.636719 C 345.605469 557.699219 345.605469 557.699219 345.707031 557.636719 Z M 366.527344 553.941406 C 366.542969 554.085938 366.539062 554.117188 366.527344 553.941406 Z M 524.160156 553.671875 C 524.117188 553.875 524.113281 553.878906 524.160156 553.671875 Z M 362.460938 550.140625 C 362.25 550.15625 362.285156 550.152344 362.460938 550.140625 Z M 465.019531 536.796875 C 464.957031 536.917969 464.953125 536.925781 465.019531 536.796875 Z M 488.433594 522.464844 C 494.664062 521.246094 499.660156 520.628906 505.171875 517.261719 C 506.253906 516.59375 503.597656 518.40625 503.265625 518.625 C 491.929688 525.871094 473.4375 530.011719 466.261719 534.585938 C 471.175781 526.445312 477.933594 524.511719 488.433594 522.464844 Z M 511.34375 511.757812 C 511.324219 511.789062 511.292969 511.824219 511.34375 511.757812 Z M 519.015625 500.394531 C 518.929688 500.5625 518.945312 500.527344 519.015625 500.394531 Z M 530.207031 485.773438 C 526.726562 492.144531 525.710938 492.476562 530.207031 485.773438 Z M 536.914062 477.625 C 539.195312 487.40625 534.699219 506.9375 535.144531 504.769531 C 529.332031 531.507812 516.15625 553.75 519.636719 582.578125 C 521.410156 597.273438 524.699219 617.214844 512.542969 625.496094 C 508.859375 627.816406 504.570312 625.363281 500.304688 633.644531 C 495.9375 642.148438 500.109375 643.414062 488.277344 659.710938 C 478.488281 673.210938 464.613281 684.757812 453.703125 695.171875 C 444.730469 703.714844 436.261719 712.960938 423.726562 713.8125 C 417.167969 714.144531 406.71875 713.503906 400.699219 711.957031 C 405.441406 709.136719 407.289062 703.585938 402.4375 701.804688 C 399.195312 700.621094 392.859375 702.023438 392.050781 707.117188 C 391.863281 708.246094 392.21875 710.375 393.253906 711.511719 C 381.019531 713.933594 352.050781 710.070312 342.980469 701.808594 C 328.078125 688.46875 321.585938 670.234375 299.070312 661.457031 C 288.058594 657.15625 285.394531 656.710938 281.671875 647.285156 C 278.207031 638.480469 272.058594 639.464844 268.613281 634.640625 C 267.835938 633.300781 267.089844 630.582031 267.929688 628.703125 C 271.492188 622.648438 284.164062 630.816406 287.136719 608.453125 C 287.441406 606.085938 299.226562 607.871094 307.542969 600.464844 C 317.875 591.222656 319.015625 577.578125 336.851562 563.941406 C 342.609375 559.546875 361.515625 545.773438 365.800781 551.539062 C 371.308594 560.886719 343.5625 569.636719 335.328125 580.925781 C 331.519531 586.128906 331.117188 596.585938 342.613281 592.617188 C 355.054688 588.328125 380.398438 566.917969 390.097656 560.507812 C 394.101562 557.917969 401.9375 554.789062 408.113281 554.347656 C 421.007812 553.882812 416.949219 563.523438 427.632812 565.746094 C 427.554688 566.054688 426.308594 580.386719 425.476562 581.558594 C 424.902344 582.03125 422.542969 582.273438 418.113281 583.730469 C 412.632812 585.511719 404.4375 585.933594 402.957031 592.992188 C 401.308594 600.855469 407.722656 604.691406 409.800781 607.648438 C 413.476562 613.585938 409.609375 620.957031 407.664062 629.90625 C 402.152344 628.394531 396.132812 625.742188 390.992188 628.390625 C 389.03125 629.398438 385.980469 631.976562 386.652344 634.332031 C 387.644531 637.683594 395.101562 638.175781 399.152344 638.441406 C 402.492188 638.65625 401.417969 638.15625 400.1875 639.347656 C 399.070312 640.433594 398.554688 642.6875 399.375 644.289062 C 400.554688 646.59375 404.105469 646.839844 406.25 647.277344 C 406.804688 647.414062 406.777344 647.28125 406.636719 648.234375 C 406.53125 648.605469 406.671875 648.589844 405.527344 648.425781 C 402.25 647.941406 401.164062 649.332031 399.933594 650.371094 C 398.359375 651.226562 394.167969 651.007812 394.191406 653.828125 C 394.214844 655.9375 397.71875 659.933594 402.839844 660.261719 C 408.332031 660.609375 412.402344 657.621094 420.449219 661.53125 C 421.273438 662 421.179688 661.933594 420.78125 662.21875 C 414.683594 665.898438 397.597656 666.863281 399.394531 675.296875 C 399.996094 678.121094 403.042969 680.875 404.472656 682.9375 C 405.242188 684.175781 405.714844 684.84375 401.273438 685.820312 C 399.324219 686.238281 400.007812 689.078125 401.828125 688.6875 C 415.207031 685.777344 402.671875 678.457031 402.183594 674.269531 C 402.183594 668.695312 422.5625 667.699219 424.089844 662.671875 C 424.960938 659.820312 420.960938 658.414062 418.160156 657.574219 C 409.785156 655.050781 407.097656 658.222656 401.472656 657.152344 C 399.082031 656.5 397.222656 654.171875 397.3125 654.136719 C 403.15625 652.441406 400.8125 653.199219 402.945312 651.605469 C 404.660156 650.671875 405.984375 651.941406 407.738281 651.25 C 409.664062 650.488281 410.214844 646.851562 409.144531 645.53125 C 407.800781 643.867188 403.164062 644.445312 401.980469 642.964844 C 399.191406 637.648438 426.105469 641.96875 433.75 641.152344 C 437.492188 640.746094 437.058594 638.554688 435.707031 637.921875 C 421.605469 631.34375 411.578125 636.601562 397.890625 635.417969 C 396.574219 635.300781 390.46875 634.765625 389.484375 633.574219 C 389.675781 632.988281 391.242188 631.328125 393.34375 630.546875 C 400.488281 628.542969 409.519531 635.917969 410.242188 631.800781 C 410.828125 628.574219 412.109375 624.683594 413.054688 620.945312 C 417.832031 602.082031 406.46875 605.644531 405.667969 595.65625 C 405.488281 588.589844 411.007812 588.996094 425.507812 584.6875 C 427.960938 583.953125 428.332031 582.835938 428.703125 580.734375 C 430.675781 569.5625 429.902344 569.519531 430.40625 566.695312 C 430.808594 565.070312 434.546875 567.851562 444.421875 562.175781 C 451.296875 558.222656 458.097656 551.363281 461.757812 543.917969 C 470.332031 526.449219 503.695312 535.050781 520.886719 503.058594 C 536.421875 486.238281 534.804688 479.640625 536.914062 477.625 Z M 530.253906 469.441406 C 533.832031 470.351562 534.050781 473.292969 533.453125 476.984375 C 525.285156 485.648438 521.3125 496.1875 518.527344 501.316406 C 498.085938 523.195312 497.078125 515.628906 477.453125 522.222656 C 469.019531 525.054688 465.324219 529.46875 461.601562 537.164062 C 459.613281 541.265625 462.082031 537.039062 456.738281 543.898438 C 453.863281 547.59375 450.367188 552.398438 446.546875 555 C 443.0625 557.15625 434.730469 557.835938 429.765625 562.269531 C 428.789062 563.136719 429.328125 563.113281 428.195312 562.902344 C 420.691406 561.167969 422 554.574219 414.382812 552.136719 C 407.519531 549.953125 397.035156 553.332031 390.671875 556.761719 C 381.882812 561.488281 346.886719 592.089844 337.34375 590.582031 C 334.878906 589.910156 335.347656 585.148438 338.933594 581.09375 C 341.722656 578.097656 345.15625 575.746094 348.566406 573.515625 L 348.253906 573.722656 C 358.222656 567.230469 369.035156 561.730469 369.425781 554.382812 C 369.671875 549.8125 366.429688 545.945312 359.277344 547.695312 C 351.066406 549.699219 339.402344 558.226562 332.796875 563.386719 C 323.855469 570.4375 320.964844 575.894531 314.703125 586.039062 C 303.46875 604.242188 300.523438 601.414062 287.421875 604.726562 C 287.953125 582.410156 273.960938 588.097656 268.265625 587.023438 C 262.921875 585.605469 265.613281 580.253906 269.398438 576.019531 C 310.441406 531.710938 377.378906 522.65625 433.320312 500.789062 C 441.335938 497.652344 446.574219 495.15625 458.085938 490.601562 C 483.792969 480.410156 523.300781 468.167969 530.253906 469.441406 Z M 525.585938 466.484375 C 521.339844 466.929688 484.707031 475.863281 441.066406 494.480469 C 389.371094 516.511719 337.023438 522.582031 292.503906 553.054688 C 285.878906 557.589844 269.519531 570.464844 264.839844 577.03125 C 260.738281 582.792969 262.132812 587.363281 265.796875 589.21875 C 270.476562 591.585938 277.144531 588.429688 280.785156 591.578125 C 284.171875 594.863281 284.726562 601 284.457031 605.636719 C 273.53125 609.710938 271.753906 625.558594 276.035156 621.894531 C 277.152344 620.949219 276.832031 612.535156 284.117188 608.960938 C 283.683594 611.886719 282.855469 614.910156 281.535156 617.554688 C 278.652344 622.945312 276.636719 621.367188 269.671875 623.902344 C 265.527344 625.417969 263.863281 628.476562 264.976562 633.214844 C 266.601562 640.320312 274.070312 640.582031 277.472656 645.363281 C 280.058594 649.546875 279.617188 652.558594 283.375 656.390625 C 288.808594 661.921875 295.925781 662.738281 303.496094 666.601562 C 321.949219 676.363281 330.453125 696.554688 343.539062 706.082031 C 350.828125 711.40625 377.855469 717.296875 393.484375 714.445312 C 399.53125 713.335938 393.136719 713.347656 401.964844 715.21875 C 409.164062 716.730469 420.589844 717.105469 425.476562 716.578125 C 437.558594 715.28125 446.042969 707.105469 472.816406 681.296875 C 482.121094 672.332031 492.496094 660.917969 498.148438 649.289062 C 501.96875 641.421875 500.507812 631.136719 510.292969 629.492188 C 513.613281 628.933594 516.636719 626.304688 518.726562 623.738281 C 529.714844 610.253906 520.5 584.707031 522.300781 565.355469 C 524.652344 540.277344 546.707031 495.109375 538.949219 474.347656 C 538.667969 473.585938 537.460938 473.195312 536.683594 473.875 C 536.289062 474.214844 537.902344 465.1875 525.585938 466.484375 " fill-opacity="1" fill-rule="nonzero"/><g clip-path="url(#9aa46f4016)"><path fill="#ffffff" d="M 339.683594 854.625 C 339.980469 854.691406 339.914062 854.679688 339.683594 854.625 Z M 303.425781 839.21875 C 303.652344 839.34375 303.652344 839.34375 303.425781 839.21875 Z M 459.117188 835.652344 L 459 835.730469 Z M 280.929688 824.132812 C 281.144531 824.328125 281.09375 824.289062 280.929688 824.132812 Z M 450.835938 823.128906 C 450.496094 823.351562 450.496094 823.351562 450.835938 823.128906 Z M 481.972656 809.605469 C 473.296875 823.050781 455.417969 846.769531 443.339844 836.308594 C 434.261719 827.511719 467.730469 813.882812 481.972656 809.605469 Z M 288.835938 796.765625 C 288.710938 796.90625 288.710938 796.90625 288.835938 796.765625 Z M 518.800781 792.652344 C 518.8125 792.808594 518.8125 792.820312 518.800781 792.652344 Z M 518.785156 792.382812 C 518.792969 792.542969 518.792969 792.550781 518.785156 792.382812 Z M 431.820312 788.066406 C 431.988281 788.101562 431.996094 788.105469 431.820312 788.066406 Z M 590.363281 784.511719 C 590.496094 784.578125 590.46875 784.566406 590.363281 784.511719 Z M 402.207031 779.769531 C 406.777344 780.8125 411.316406 782.945312 415.898438 785.085938 C 415.476562 785.5625 415.585938 785.917969 415.464844 786.617188 C 414.464844 789.808594 409.003906 787.519531 396.636719 787.417969 C 380.347656 787.277344 389.054688 777.125 402.207031 779.769531 Z M 569.703125 778.117188 C 570.035156 778.1875 569.953125 778.171875 569.703125 778.117188 Z M 303.769531 773.132812 C 303.714844 773.238281 303.710938 773.25 303.769531 773.132812 Z M 521.796875 771.554688 C 514.214844 778.789062 521.128906 793.597656 517.75 796.050781 C 514.78125 797.835938 501.449219 801.109375 488.402344 804.71875 C 493.347656 796.253906 501.78125 775.792969 521.796875 771.554688 Z M 482.554688 712.414062 C 482.527344 712.558594 482.515625 712.601562 482.554688 712.414062 Z M 490.472656 652.183594 C 483.285156 674.382812 487.253906 696.511719 481.21875 717.75 C 477.9375 729.316406 467.605469 732.167969 460.261719 740.425781 C 447.089844 755.234375 458.160156 777.628906 446.667969 785.554688 C 439.5625 790.085938 432.777344 788.976562 424.988281 785.941406 C 426.375 785.261719 425.839844 783.25 424.457031 783.183594 C 422.910156 783.117188 421.417969 783.398438 419.925781 783.773438 C 409.28125 778.898438 402.554688 774.902344 393.121094 777.003906 C 387.574219 778.238281 383.148438 781.605469 385.597656 786.5 C 387.558594 790.394531 394.292969 790.371094 398.605469 790.316406 C 407.03125 790.214844 416.867188 793.839844 418.308594 787.21875 C 420.15625 786.746094 419.101562 786.632812 422.226562 787.960938 C 431.960938 792.097656 441.617188 793.574219 449.820312 786.847656 C 459.011719 779.3125 453.152344 759.1875 458.847656 747.5625 C 464.601562 736.699219 475.429688 734.5625 481.519531 724.414062 C 486.59375 715.933594 487.640625 697.125 488.214844 687.53125 C 488.945312 675.152344 487.058594 688.84375 494.78125 708.621094 C 505.6875 736.515625 512.941406 757.578125 529.171875 767.71875 C 530.519531 768.5625 519.824219 765.855469 506.867188 775.167969 C 497.179688 782.140625 491.6875 792.726562 488.28125 799.035156 C 482.234375 810.140625 487.503906 803.039062 465.546875 812.296875 C 457 815.90625 438.261719 824.597656 438.84375 833.871094 C 439.238281 840.015625 456.15625 857.054688 486.21875 808.363281 C 520.003906 798.730469 522.289062 800.414062 521.636719 791.679688 C 519.796875 766.640625 522.875 768.160156 569.582031 778.089844 C 569.546875 778.082031 594.074219 782.554688 594.898438 789.324219 C 594.910156 792.675781 590.523438 796.289062 587.894531 798.410156 C 587.476562 798.75 573.039062 809.851562 569.117188 812.445312 C 537.75 832.84375 515.746094 824.914062 491.773438 837.863281 C 488.175781 839.800781 484.75 842.28125 474.53125 847.378906 C 416.585938 876.277344 375.679688 862.199219 340.027344 854.703125 C 324.277344 851.230469 319.425781 844.648438 305.597656 837.089844 C 297.664062 832.746094 283.8125 829.203125 277.890625 820.671875 C 275.347656 816.648438 275.320312 812.78125 276.585938 810.0625 C 281.210938 801.832031 287.738281 810.753906 306.414062 774.324219 C 314.304688 758.960938 313.816406 744.5625 309.53125 728.058594 C 298.890625 686.84375 292.472656 684.8125 288.148438 672.535156 C 284.054688 659.871094 291.332031 654.355469 288.011719 653.144531 C 287.265625 652.871094 286.410156 653.269531 286.140625 654.019531 C 279.042969 673.816406 289.945312 675.132812 302.386719 714.480469 C 308.089844 732.554688 313.121094 748.335938 306.6875 766.449219 C 304.453125 772.777344 294.121094 790.828125 288.914062 796.679688 C 283.703125 802.28125 279.585938 802.238281 275.734375 806.308594 C 271.917969 810.335938 271.453125 817.679688 276.867188 824.132812 C 281.546875 829.730469 290.375 833.484375 297.097656 836.359375 C 315.347656 844.195312 320.214844 852.808594 337.355469 857.0625 C 337.394531 857.074219 373.710938 865.691406 390.582031 867.164062 C 450.195312 872.378906 487.601562 841.449219 502.886719 836.210938 C 516.300781 831.800781 529.0625 831.644531 543.980469 827.257812 C 563.769531 821.453125 574.375 812.425781 588.023438 802.019531 C 609.605469 785.53125 592.257812 779.636719 565.691406 774.332031 C 534.738281 768.148438 522.976562 771.359375 505.75 728.074219 C 497.296875 706.832031 492.121094 696.957031 491.027344 677.796875 C 490.238281 660.984375 493.757812 653.296875 493.152344 652.046875 C 492.589844 650.859375 490.84375 651.023438 490.472656 652.183594 " fill-opacity="1" fill-rule="nonzero"/></g><path fill="#ffffff" d="M 495.414062 477.234375 C 495.480469 477.214844 495.488281 477.210938 495.414062 477.234375 Z M 512.546875 512.246094 C 512.59375 512.230469 512.589844 512.230469 512.546875 512.246094 Z M 431.386719 590.667969 C 431.300781 590.679688 431.664062 590.65625 431.386719 590.667969 Z M 424.058594 633.046875 C 424.1875 633.039062 424.320312 633.027344 424.058594 633.046875 Z M 406.304688 687.738281 C 406.367188 687.792969 406.382812 687.8125 406.304688 687.738281 Z M 400.597656 681.964844 C 400.429688 682.023438 400.421875 682.027344 400.597656 681.964844 Z M 407.839844 666.460938 C 407.765625 666.550781 407.792969 666.511719 407.839844 666.460938 Z M 400.992188 653.289062 C 400.871094 653.300781 400.871094 653.300781 400.992188 653.289062 Z M 405.519531 645.953125 C 405.617188 645.972656 405.777344 646.003906 405.519531 645.953125 Z M 416.316406 643.847656 C 416.433594 643.871094 416.402344 643.871094 416.316406 643.847656 Z M 399.167969 642.050781 C 399.070312 642.164062 399.058594 642.175781 399.167969 642.050781 Z M 441.1875 637.191406 C 441.046875 637.203125 441.046875 637.203125 441.1875 637.191406 Z M 382.511719 636.523438 C 382.398438 636.65625 382.417969 636.625 382.511719 636.523438 Z M 416.429688 635.6875 C 416.175781 635.777344 416.234375 635.753906 416.429688 635.6875 Z M 435.90625 634.703125 C 437.96875 635.171875 439.636719 635.855469 441.269531 637.1875 C 429.699219 637.753906 427.410156 633.664062 418.609375 642.648438 C 417.230469 644.039062 417.902344 644.117188 416.195312 643.824219 C 412.292969 642.960938 408.46875 640.015625 404.75 639.070312 C 410.992188 638.574219 417.382812 637.988281 419.847656 635.695312 C 421.039062 634.570312 419.445312 634.945312 422.589844 634.796875 C 426.894531 634.59375 431.5 633.859375 435.90625 634.703125 Z M 386.121094 633.5 C 385.941406 633.625 385.878906 633.660156 386.121094 633.5 Z M 415.796875 632.769531 C 416.019531 632.808594 416.089844 632.828125 415.796875 632.769531 Z M 415.539062 631.808594 C 415.664062 631.832031 415.675781 631.835938 415.539062 631.808594 Z M 412.445312 631.511719 C 412.996094 631.515625 412.882812 631.496094 413.023438 631.644531 C 413.386719 632.019531 413.957031 632.023438 414.292969 631.621094 C 415.625 631.769531 417.777344 632.304688 418.601562 633.128906 C 416.5 632.996094 414.257812 632.5625 412.445312 631.511719 Z M 401.738281 628.285156 L 401.675781 628.289062 Z M 407.027344 628.582031 C 408.242188 628.835938 409.707031 629.289062 410.78125 629.910156 C 407.324219 630.199219 410.058594 632.488281 413.445312 633.808594 C 417.21875 635.277344 420.457031 634.242188 416.445312 635.683594 C 409.402344 637.914062 380.308594 639.078125 382.40625 636.644531 C 387.597656 630.992188 398.769531 627.089844 407.027344 628.582031 Z M 412.867188 613.320312 C 412.746094 613.550781 412.792969 613.453125 412.867188 613.320312 Z M 414.226562 612.15625 C 414.128906 612.226562 414.085938 612.253906 414.226562 612.15625 Z M 415.066406 609.675781 C 414.925781 609.769531 414.957031 609.746094 415.066406 609.675781 Z M 416.347656 608.492188 C 416.3125 608.566406 416.304688 608.582031 416.347656 608.492188 Z M 416.480469 608.15625 C 416.457031 608.316406 416.4375 608.386719 416.480469 608.15625 Z M 416.511719 607.742188 C 416.539062 607.9375 416.542969 608.113281 416.511719 607.742188 Z M 416.484375 607.539062 C 416.519531 607.640625 416.519531 607.640625 416.484375 607.539062 Z M 414.835938 603.703125 C 414.871094 603.816406 414.855469 603.765625 414.835938 603.703125 Z M 410.304688 592.195312 C 410.089844 592.015625 410.019531 592.0625 410.65625 592.082031 C 410.488281 592.496094 410.84375 592.664062 410.304688 592.195312 Z M 416.074219 591.601562 C 416.003906 591.625 416 591.628906 416.074219 591.601562 Z M 296.738281 590.132812 C 296.710938 590.242188 296.714844 590.21875 296.738281 590.132812 Z M 428.472656 589.164062 C 429.359375 589.195312 430.148438 589.089844 421.746094 589.875 C 424.484375 589.226562 426.519531 589.089844 428.472656 589.164062 Z M 392.421875 588.773438 C 392.503906 588.792969 392.511719 588.792969 392.421875 588.773438 Z M 296.898438 586.75 C 296.90625 586.863281 296.902344 586.839844 296.898438 586.75 Z M 395.078125 586.679688 C 396.601562 587.03125 397.679688 587.523438 398.9375 588.148438 C 402.914062 590.179688 402.242188 589.804688 401.464844 589.753906 C 398.097656 589.546875 395.769531 589.425781 392.308594 588.75 C 388.894531 588.035156 389.414062 588.140625 390.125 587.648438 C 391.675781 586.664062 393.035156 586.339844 395.078125 586.679688 Z M 270.449219 577.367188 C 270.457031 577.453125 270.449219 577.4375 270.449219 577.367188 Z M 433.003906 573.71875 C 433.058594 573.871094 433.070312 573.90625 433.003906 573.71875 Z M 433.949219 565.125 C 433.933594 565.21875 433.925781 565.238281 433.949219 565.125 Z M 447.4375 545.675781 C 447.347656 545.777344 447.328125 545.796875 447.4375 545.675781 Z M 447.503906 545.597656 C 447.441406 545.675781 447.40625 545.710938 447.503906 545.597656 Z M 477.929688 531.738281 C 477.878906 531.972656 477.894531 531.871094 477.929688 531.738281 Z M 482.097656 521.65625 C 481.933594 521.835938 481.953125 521.816406 482.097656 521.65625 Z M 484.589844 519.648438 C 484.421875 519.773438 484.359375 519.808594 484.589844 519.648438 Z M 531.839844 480.5625 C 531.773438 480.640625 531.738281 480.675781 531.839844 480.5625 Z M 535.449219 479.558594 C 535.476562 479.566406 535.484375 479.566406 535.449219 479.558594 Z M 530.886719 476.269531 C 530.945312 476.433594 530.917969 476.375 530.886719 476.269531 Z M 539.195312 469.722656 C 539.175781 469.804688 539.171875 469.808594 539.195312 469.722656 Z M 538.894531 466.789062 C 538.9375 466.917969 538.914062 466.859375 538.894531 466.789062 Z M 538.597656 466.035156 C 539.523438 468.230469 539.363281 469.789062 538.679688 471.304688 C 537.332031 473.875 532.03125 478.03125 531.996094 478 C 528.335938 474.417969 533.367188 468.078125 538.597656 466.035156 Z M 532.101562 463.441406 C 531.867188 463.519531 531.914062 463.503906 532.101562 463.441406 Z M 535.976562 460.707031 C 524.472656 462.519531 519.960938 471.464844 469.179688 485.257812 C 392.933594 505.96875 360.703125 500.28125 298.347656 545.285156 C 285.503906 554.546875 259.296875 574.261719 272.28125 583.339844 C 280.992188 589.402344 292.960938 580.128906 296.242188 584.585938 C 297.390625 586.5 297.03125 590.070312 295.980469 592.265625 C 294.015625 596.082031 290.777344 599.246094 292.085938 601.753906 C 293.398438 604.320312 303.242188 604.378906 301.339844 602.175781 C 300.683594 601.4375 299.085938 602.457031 295.226562 601.789062 C 290.207031 600.628906 297.636719 595.855469 298.441406 589.871094 C 300.449219 575.179688 285.074219 585.105469 277.390625 583.773438 C 267.171875 581.460938 269.542969 573.753906 276.585938 565.757812 C 275.3125 567.226562 282 558.089844 308.09375 540.503906 C 305.519531 542.214844 333.820312 522.21875 362.78125 512.5625 C 397.75 500.464844 480.378906 490.03125 520.417969 468.828125 C 525.609375 466.089844 536.230469 460.351562 541.527344 462.757812 C 548.539062 466.582031 539.128906 474.984375 535.707031 479.609375 C 535.140625 479.503906 534.261719 479.257812 533.507812 478.941406 C 538.097656 474.820312 543.230469 471.875 539.796875 464.628906 C 538.628906 462.15625 525.355469 471.429688 530 478.21875 C 531.140625 479.886719 531.222656 478.273438 529.1875 481.292969 C 525.972656 486.050781 525.804688 490.535156 524.863281 495.21875 C 519.015625 522.8125 498.257812 508.394531 483.492188 518.394531 C 476.382812 523.207031 479.015625 528.007812 477.671875 532.789062 C 476.976562 535.277344 474.425781 537.84375 470.53125 538.597656 C 462.734375 540.085938 451.289062 533.753906 442.324219 550.554688 C 435.71875 562.90625 434.667969 561.082031 433.453125 562.039062 C 432.304688 562.960938 431.546875 568.335938 431.804688 570.28125 C 432.074219 572.421875 433.363281 573.363281 433.105469 575.109375 C 430.675781 584.429688 415.941406 582.945312 411.453125 590.4375 C 402.890625 590.3125 401.746094 586.382812 395.457031 585.070312 C 390.339844 583.96875 385.386719 588.570312 387.578125 589.246094 C 404.21875 594.382812 410.441406 586.289062 413.152344 603.566406 C 413.484375 606.84375 419.121094 606.800781 415.097656 609.652344 C 411.292969 612.121094 410.792969 611.980469 410.882812 616.8125 C 410.960938 620.710938 412.0625 624.652344 412.621094 629.101562 C 401.351562 621.089844 379.054688 633.726562 379.828125 637.746094 C 380.25 639.714844 391.222656 639.648438 393.238281 639.625 C 403.355469 639.515625 399.195312 638.105469 396.644531 642.898438 C 395.128906 645.703125 407.054688 644.914062 409.050781 647.484375 C 409.59375 648.441406 408.613281 651.304688 405.265625 651.644531 C 401.648438 651.847656 397.253906 650.515625 396.792969 655.3125 C 396.722656 656.015625 397.609375 656.496094 398.175781 655.996094 C 398.421875 655.75 403.988281 660.242188 405.953125 662.753906 C 405.863281 663.644531 406.902344 663.789062 408.046875 664.097656 C 406.277344 665.316406 405.234375 667.074219 404.363281 668.832031 C 401.496094 674.597656 405.652344 677.671875 403.695312 680.21875 C 401.632812 682.34375 398.359375 681.847656 399.148438 683.429688 C 399.433594 684.003906 405.398438 686.347656 407.089844 688.574219 C 407.75 689.445312 411.9375 688.253906 402.027344 683.195312 C 405.550781 681.78125 406.410156 679.957031 405.65625 676.699219 C 404.820312 673.050781 404.386719 672.507812 406.128906 668.992188 C 405.628906 670.105469 407.09375 666.058594 410.273438 664.828125 C 412.539062 664.121094 420.324219 666.300781 427.21875 661.265625 C 427.871094 660.789062 427.359375 659.472656 426.296875 659.894531 C 423.46875 660.964844 418.300781 662.9375 415.335938 662.8125 C 410.179688 662.601562 411.488281 663.441406 407.621094 662.238281 C 406.949219 660.972656 402.957031 657.394531 401.324219 656.089844 C 398.578125 653.898438 398.417969 654.675781 398.9375 653.980469 C 400.839844 652.128906 406.714844 654.953125 409.453125 651.457031 C 415.425781 643.914062 402.5625 644.253906 398.542969 642.941406 C 402.828125 636.214844 410.082031 645.128906 417.179688 645.617188 C 419.660156 645.785156 418.867188 644.84375 419.335938 644.296875 C 420.199219 643.359375 424.179688 639.324219 426.910156 638.730469 C 431.378906 637.792969 446.769531 640.367188 443.761719 637.242188 C 439.785156 633.101562 435.234375 632.449219 429.527344 632.675781 C 418.121094 633.136719 421.703125 633.898438 419.863281 632.03125 C 418.59375 630.734375 416.191406 630.160156 414.386719 629.949219 C 413.941406 625.296875 411.417969 615.105469 413.019531 613.144531 C 414.824219 611.25 418.882812 610.472656 418.074219 607.070312 C 417.679688 605.449219 415.632812 604.871094 414.988281 604.046875 C 414.65625 603.480469 414.242188 596.742188 411.265625 593.175781 C 411.511719 593.238281 411.328125 593.28125 414.777344 592.054688 C 416.007812 592.007812 435.097656 590.441406 435.132812 590.421875 C 437.765625 589.128906 430.945312 586.636719 423.414062 587.835938 C 418.230469 588.664062 412.648438 591.445312 413.71875 590.171875 C 418.882812 584.671875 431.800781 585.355469 434.660156 575.769531 C 435.574219 572.6875 432.800781 572.167969 433.515625 567.5 C 434.78125 559.359375 434.265625 567.242188 440.683594 556.933594 C 444.925781 550.148438 446.78125 541.40625 458.703125 540.328125 C 463.695312 540.015625 476.105469 542.945312 479.25 533.339844 C 480.902344 528.292969 477.066406 521.644531 488.957031 517.507812 C 497.414062 514.308594 509.417969 517.214844 517.40625 511.632812 C 529.425781 503.238281 524.347656 488.242188 532.222656 480.167969 C 533.5 480.835938 534.601562 481.105469 536.027344 481.34375 C 536.671875 481.453125 536.597656 480.996094 539.226562 477.910156 C 541.238281 475.550781 543.328125 473.1875 544.660156 470.546875 C 547.503906 464.957031 544.363281 459.398438 535.976562 460.707031 " fill-opacity="1" fill-rule="nonzero"/><g clip-path="url(#03f97b52ae)"><path fill="#ffffff" d="M 350.933594 558.28125 C 350.859375 558.304688 351.125 558.210938 350.933594 558.28125 Z M 527.796875 563.941406 C 527.785156 563.765625 527.785156 563.800781 527.796875 563.941406 Z M 327.480469 578.441406 C 327.46875 578.488281 327.476562 578.46875 327.480469 578.433594 Z M 324.703125 584.667969 C 324.703125 584.636719 324.710938 584.617188 324.703125 584.667969 Z M 277.882812 588.4375 C 277.882812 588.445312 277.859375 588.390625 277.882812 588.4375 Z M 281.207031 601.210938 C 281.203125 601.203125 281.199219 601.195312 281.199219 601.1875 C 281.199219 601.191406 281.203125 601.199219 281.207031 601.210938 Z M 396.886719 707.554688 C 396.863281 707.488281 396.859375 707.484375 396.886719 707.554688 Z M 496.109375 710.984375 C 496.152344 711.097656 496.101562 710.953125 496.070312 710.867188 C 496.082031 710.90625 496.09375 710.945312 496.109375 710.984375 Z M 506.828125 773.28125 C 506.769531 773.304688 506.804688 773.292969 506.859375 773.273438 C 506.847656 773.277344 506.835938 773.28125 506.828125 773.28125 Z M 539.125 826.261719 C 539.210938 826.230469 539.171875 826.242188 539.125 826.261719 Z M 475.167969 842.832031 C 475.242188 842.8125 475.253906 842.808594 475.167969 842.832031 Z M 414.410156 851.441406 C 414.609375 851.371094 414.585938 851.378906 414.410156 851.441406 Z M 425.820312 859.511719 C 426.066406 859.421875 426.003906 859.445312 425.820312 859.511719 Z M 364.132812 870.359375 C 364.242188 870.378906 364.277344 870.386719 364.132812 870.359375 Z M 358.714844 865.695312 C 358.636719 865.699219 358.636719 865.699219 358.714844 865.695312 Z M 341.480469 861.636719 C 339.066406 859.9375 342.550781 862.109375 346.007812 864.160156 C 344.6875 863.621094 343.253906 862.878906 341.480469 861.636719 Z M 320.859375 845.308594 C 321.121094 845.441406 321.105469 845.4375 320.859375 845.308594 Z M 314.4375 843.21875 C 314.488281 843.222656 314.53125 843.234375 314.4375 843.21875 Z M 331.882812 855.199219 C 319.3125 850.914062 307.675781 846.785156 293.253906 839.933594 C 310.617188 844.476562 318.320312 839.339844 330.558594 853.371094 C 332.605469 855.722656 332.535156 855.417969 331.882812 855.199219 Z M 282.6875 833.738281 C 282.765625 833.8125 282.769531 833.816406 282.6875 833.738281 Z M 279.757812 832.59375 C 280.054688 833.246094 280.269531 833.25 279.464844 832.796875 C 279.5625 832.730469 279.660156 832.664062 279.757812 832.59375 Z M 545.011719 823.386719 C 544.832031 823.511719 544.808594 823.523438 545.011719 823.386719 Z M 549.496094 819.359375 C 549.4375 819.433594 549.445312 819.414062 549.496094 819.359375 Z M 547.609375 819.65625 C 550.003906 819.136719 549.625 819.210938 549.394531 819.476562 C 537.714844 832.320312 519.382812 826.773438 481.0625 839.113281 C 442.589844 851.496094 385.015625 881.238281 355.503906 867.46875 C 375.0625 867.425781 397.886719 857.226562 414.609375 851.371094 C 414.578125 851.382812 426.710938 845.820312 479.253906 836.34375 C 534.953125 826.3125 538.003906 821.726562 547.609375 819.65625 Z M 567.140625 810.527344 C 567.125 810.613281 567.121094 810.628906 567.140625 810.527344 Z M 431.902344 800.527344 C 432.03125 800.558594 432.039062 800.558594 431.902344 800.527344 Z M 567.070312 801.113281 C 573.417969 794.585938 570.09375 797.28125 568.621094 800.648438 C 568.148438 801.730469 567.890625 804.046875 567.773438 805.199219 C 566.957031 813.308594 568.242188 814.117188 553.679688 816.800781 C 561.511719 806.417969 559.582031 808.832031 567.070312 801.113281 Z M 440.5625 796.855469 C 440.453125 796.96875 440.464844 796.953125 440.5625 796.855469 Z M 410.691406 794.800781 C 410.855469 794.828125 410.890625 794.835938 410.691406 794.800781 Z M 372.992188 793.832031 C 372.882812 793.835938 372.875 793.839844 372.992188 793.832031 Z M 398.832031 787.714844 C 399.007812 787.742188 399.023438 787.746094 398.832031 787.714844 Z M 330.164062 786.761719 C 330.171875 786.847656 330.171875 786.851562 330.164062 786.761719 Z M 392.382812 784.828125 C 392.425781 784.898438 392.425781 784.898438 392.382812 784.828125 Z M 392.269531 782.777344 C 392.257812 782.800781 392.246094 782.828125 392.234375 782.851562 Z M 447.238281 780.710938 C 447.210938 780.84375 447.207031 780.859375 447.238281 780.710938 Z M 400.230469 780.128906 C 400.335938 780.144531 400.308594 780.144531 400.230469 780.128906 Z M 400.128906 780.109375 C 402.660156 780.6875 408.578125 784.136719 399.582031 787.851562 C 385.796875 785.417969 393.941406 779.027344 400.128906 780.109375 Z M 581.613281 779.703125 C 581.621094 779.785156 581.617188 779.800781 581.613281 779.703125 Z M 332.023438 795.609375 C 332.035156 792.222656 332.183594 786.910156 330.972656 778.851562 C 337.625 784.621094 347.199219 824.582031 356.496094 844.261719 C 342.621094 828.492188 331.972656 816.40625 332.023438 795.609375 Z M 574.753906 792.46875 C 582.164062 782.964844 580.40625 777.917969 580.886719 778.289062 C 581.75 779.15625 581.726562 780.1875 581.496094 781.472656 C 579.746094 788.9375 573.292969 794.453125 571.867188 795.949219 C 572.863281 794.816406 573.828125 793.65625 574.753906 792.46875 Z M 574.917969 777.347656 C 574.84375 777.355469 574.835938 777.355469 574.917969 777.347656 Z M 331.5 777.113281 C 331.625 777.210938 331.707031 777.289062 331.5 777.113281 Z M 528.128906 775.390625 C 528.335938 775.429688 528.320312 775.429688 528.128906 775.390625 Z M 521.835938 771.605469 C 521.964844 771.632812 521.976562 771.632812 521.835938 771.605469 Z M 511.519531 771.929688 C 515.691406 770.953125 515.109375 771.398438 515.855469 772.121094 C 518.777344 774.933594 491.601562 808.085938 482.042969 814.617188 C 479.082031 816.546875 476.601562 815.960938 475.425781 814.460938 C 472.929688 810.253906 479.707031 797.527344 482.460938 793.519531 C 487.109375 786.726562 494.140625 780.972656 500.339844 775.988281 C 505.160156 773.71875 508.515625 772.621094 511.519531 771.929688 Z M 526.683594 770.152344 C 526.792969 770.308594 526.824219 770.355469 526.683594 770.152344 Z M 485.875 780.480469 C 512.261719 766.121094 506.429688 768.484375 499.453125 774.566406 C 492.957031 777.515625 482.585938 784.109375 474.878906 788.050781 C 464.542969 793.324219 478.46875 784.519531 485.875 780.480469 Z M 311.128906 769.601562 C 311.105469 769.710938 311.09375 769.742188 311.128906 769.601562 Z M 329.164062 769.382812 C 332.859375 779.414062 332.578125 778.050781 331.644531 777.238281 C 329.929688 775.699219 331.074219 777.449219 329.164062 769.382812 Z M 286.085938 817.421875 C 294.761719 801.585938 305.136719 784.96875 311.386719 768.132812 C 309.164062 781.433594 301.59375 792.992188 294.527344 805.050781 C 290.28125 812.289062 287.199219 823.230469 280.90625 829.460938 C 281.164062 826.230469 283.984375 821.265625 286.085938 817.421875 Z M 515.554688 767.15625 C 516.53125 767.503906 516.851562 768.511719 516.851562 769.550781 C 515.867188 769.585938 515.996094 769.757812 515.703125 768.980469 C 515.5 768.292969 515.472656 767.847656 515.554688 767.15625 Z M 513.898438 766.945312 C 513.152344 772.398438 518.09375 767.28125 505.109375 772.136719 C 510.046875 768.109375 510.058594 767.042969 513.898438 766.945312 Z M 519.082031 764.441406 C 522.359375 765.203125 525.691406 768.234375 527.253906 771.117188 C 528.503906 773.382812 526.703125 770.203125 519.347656 769.585938 C 518.113281 769.480469 518.726562 769.902344 518.367188 768.207031 C 518.125 767.078125 517.359375 766.042969 516.070312 765.570312 C 516.640625 764.664062 517.289062 764.171875 519.082031 764.441406 Z M 323.613281 764.113281 C 323.628906 764.269531 323.628906 764.3125 323.613281 764.113281 Z M 451.359375 763.792969 C 451.324219 763.972656 451.320312 763.980469 451.359375 763.792969 Z M 465.570312 759.898438 C 465.511719 759.941406 465.449219 759.984375 465.570312 759.898438 Z M 324.457031 758.9375 C 326.238281 764.339844 327.605469 769.664062 328.460938 774.039062 C 324.519531 769.554688 322.265625 764.4375 324.457031 758.9375 Z M 313.960938 753.347656 C 313.945312 753.453125 313.933594 753.472656 313.960938 753.347656 Z M 460.40625 750.3125 C 460.382812 750.402344 460.382812 750.402344 460.40625 750.3125 Z M 466.179688 746.132812 C 466.0625 746.175781 466.023438 746.1875 466.179688 746.132812 Z M 466.28125 746.097656 C 466.207031 746.128906 466.167969 746.136719 466.28125 746.097656 Z M 471.515625 741.839844 C 471.445312 741.921875 471.445312 741.921875 471.515625 741.839844 Z M 315.199219 736.679688 C 315.207031 736.8125 315.207031 736.820312 315.199219 736.679688 Z M 312.507812 723.238281 C 312.542969 723.335938 312.546875 723.335938 312.507812 723.238281 Z M 416.222656 712.335938 C 416.152344 712.34375 416.144531 712.34375 416.222656 712.335938 Z M 404.769531 712.117188 C 404.675781 712.125 404.667969 712.125 404.769531 712.117188 Z M 401.316406 711.980469 C 401.464844 712.011719 401.476562 712.019531 401.316406 711.980469 Z M 385.765625 711.753906 C 385.542969 711.765625 385.566406 711.765625 385.765625 711.753906 Z M 417.847656 710.578125 C 417.675781 710.589844 417.71875 710.582031 417.847656 710.578125 Z M 469.332031 745.222656 C 472.492188 744.191406 474.234375 741.246094 475.824219 738.296875 C 480.277344 730.078125 484.78125 717.980469 487.839844 709.148438 C 485.78125 715.226562 474.609375 745.730469 471.765625 751.453125 C 472.152344 750.679688 466.5 763.609375 461.722656 759.664062 C 459.328125 757.375 459.59375 754.421875 460.421875 750.238281 C 460.644531 749.199219 460.410156 749.496094 461.703125 748.621094 C 460.953125 749.121094 462.707031 747.925781 464.246094 747.027344 C 466.195312 745.894531 467.507812 745.832031 469.332031 745.222656 Z M 399.464844 707.597656 C 399.316406 707.703125 399.300781 707.707031 399.464844 707.597656 Z M 396.871094 707.355469 C 396.839844 707.378906 396.828125 707.382812 396.871094 707.355469 Z M 400.648438 707 C 400.695312 707.058594 400.726562 707.117188 400.648438 707 Z M 400.359375 706.902344 L 400.347656 706.917969 Z M 400.34375 706.898438 C 399.617188 707.589844 398.589844 708.148438 397.386719 708.757812 C 397.09375 708.179688 396.753906 707.167969 396.941406 707.707031 C 396.585938 706.917969 399.441406 706.765625 400.34375 706.898438 Z M 443.796875 705.457031 C 443.726562 705.476562 443.726562 705.476562 443.796875 705.457031 Z M 466.425781 761.324219 C 471.117188 758.417969 475.335938 747.980469 477.265625 742.808594 C 486.667969 717.601562 489.066406 711.195312 491.683594 702.667969 C 497.953125 723.953125 512.300781 753.457031 512.917969 759.707031 C 513 762.246094 511.640625 763.988281 509.246094 766.316406 C 505.71875 767.59375 462.660156 789.925781 466.945312 792.871094 C 468.578125 793.964844 485.121094 784.292969 486.390625 783.558594 C 502.265625 774.382812 486.914062 782.015625 478.765625 796.261719 C 477.101562 799.175781 471.992188 809.691406 473.503906 814.285156 C 474.410156 817.035156 478.523438 819.027344 483.070312 815.921875 C 493.15625 809.09375 515.871094 780.425781 517.84375 773.613281 C 523.117188 776.816406 532.742188 777.988281 538.964844 778.507812 C 564.304688 780.613281 572.539062 776.386719 578.988281 777.480469 C 580.664062 788.171875 563.816406 800.414062 554.214844 813.300781 C 549.296875 819.894531 553.289062 815.769531 543.457031 819.011719 C 486.855469 837.414062 456.214844 835.066406 413.863281 849.878906 C 398.953125 855.097656 369.75 867.695312 351.871094 865.617188 C 346.488281 862.667969 341.3125 859.144531 335.949219 856.78125 C 334.609375 855.414062 333.71875 854.425781 332.585938 853.152344 C 317.453125 836.148438 311.808594 843.910156 290.742188 837.476562 C 287.261719 836.410156 282.339844 834.683594 281.121094 831.542969 C 287.1875 826.359375 290.6875 816.375 294.339844 808.917969 C 294.320312 808.953125 304.144531 791.816406 305.105469 790.007812 C 313.988281 773.316406 312.203125 768.980469 315.300781 755.027344 C 320.160156 733.171875 310.726562 717.632812 324.3125 755.976562 C 323.730469 756.167969 317.082031 765.394531 329.003906 777.039062 C 329.917969 782.550781 330.292969 787.230469 330.375 791.835938 C 330.855469 819.375 338.847656 826.359375 359.589844 850.328125 C 360.246094 851.082031 361.402344 850.230469 360.960938 849.40625 C 351.34375 831.519531 352.175781 825.625 335.890625 782.609375 C 346.503906 789.84375 364.015625 797.105469 376.730469 794.9375 C 406.757812 789.929688 393.53125 789.25 404.402344 790.144531 C 402.777344 792.96875 402.429688 793.339844 402.929688 793.890625 C 405.644531 796.949219 424.625 797.71875 427.429688 799.605469 C 428.542969 800.367188 429.507812 801.824219 431.671875 802.171875 C 440.195312 803.8125 445.402344 793.914062 447.777344 785.585938 C 451.925781 771.078125 448.40625 759.683594 458.578125 750.964844 C 458.632812 750.910156 458.207031 752.664062 458.199219 754.953125 C 458.171875 759.957031 462.105469 764.003906 466.425781 761.324219 Z M 300.78125 711.285156 C 299.921875 708.011719 299.277344 704.6875 298.933594 701.328125 C 312.96875 716.554688 318.503906 733.917969 313.515625 755.382812 C 312.261719 741.90625 304.261719 724.597656 300.78125 711.285156 Z M 336.464844 698.339844 C 336.613281 698.464844 336.613281 698.464844 336.464844 698.339844 Z M 489.445312 683.035156 C 489.457031 683.1875 489.457031 683.175781 489.445312 683.035156 Z M 317.050781 681.054688 C 317.167969 681.152344 317.15625 681.148438 317.050781 681.054688 Z M 489.859375 674.304688 C 489.832031 674.421875 489.832031 674.421875 489.859375 674.304688 Z M 496.710938 664.382812 C 496.828125 666.960938 496.339844 669.164062 495.976562 672.148438 C 493.917969 688.828125 496.050781 679.332031 491.152344 694.066406 C 488.792969 683.609375 487.199219 669.1875 496.710938 664.382812 Z M 283.570312 660.378906 C 283.578125 660.464844 283.582031 660.472656 283.570312 660.378906 Z M 283.480469 656.21875 C 283.425781 651.671875 282.214844 655.640625 291.792969 663.445312 C 302.132812 671.886719 311.0625 674.566406 321.492188 685.492188 C 330.238281 694.671875 337.765625 703.765625 349.382812 708.667969 C 357.121094 711.941406 384.71875 716.273438 396.328125 711.109375 C 397.125 710.757812 396.359375 710.882812 397.863281 712.125 C 401.898438 715.453125 407.714844 713.015625 416.101562 712.347656 C 436.703125 711.003906 457.816406 705.03125 471.761719 689.566406 C 482.511719 677.679688 483.710938 662.140625 474.410156 699.417969 C 465.273438 735.980469 469.609375 718.632812 461.855469 739.707031 C 460.808594 742.554688 459.859375 745.4375 459.148438 748.386719 C 443.378906 759.984375 452.734375 778.015625 442.03125 794.871094 C 439.824219 798.308594 436.765625 800.753906 432.648438 800.609375 C 429.21875 800.410156 430.0625 798.027344 425.144531 797 C 417.949219 795.523438 410.566406 795.574219 404.757812 792.988281 C 405.457031 791.757812 405.730469 790.992188 406.585938 789.886719 C 406.984375 789.378906 406.550781 788.628906 405.953125 788.585938 C 398.933594 788.113281 405.085938 788.75 406.074219 784.671875 C 406.738281 781.984375 403.003906 777.398438 396.632812 778.472656 C 389.929688 779.625 386.652344 786.210938 396.6875 788.90625 C 389.109375 791.347656 374.347656 793.707031 372.878906 793.839844 C 362.492188 794.453125 344.753906 787.207031 334.824219 779.800781 C 323.289062 749.21875 318.425781 733.976562 313.296875 716.523438 C 306.242188 692.519531 283.796875 683.832031 283.480469 656.21875 Z M 283.605469 650.589844 C 283.652344 650.710938 283.640625 650.6875 283.605469 650.589844 Z M 281.5 646.363281 C 281.511719 646.515625 281.507812 646.484375 281.5 646.363281 Z M 505.757812 645.207031 C 505.773438 645.363281 505.769531 645.355469 505.757812 645.207031 Z M 505.753906 645.097656 C 505.757812 645.199219 505.753906 645.183594 505.753906 645.097656 Z M 269.992188 644.585938 C 269.921875 644.613281 269.917969 644.613281 269.992188 644.585938 Z M 496.328125 643.675781 C 496.304688 643.707031 496.285156 643.734375 496.257812 643.761719 Z M 259.816406 642.671875 L 259.859375 642.710938 Z M 503.105469 640.484375 C 503.191406 640.5 503.171875 640.492188 503.105469 640.484375 Z M 502.988281 640.460938 C 509.832031 642.203125 502.359375 663.722656 500.003906 670.359375 C 496.652344 679.839844 496.554688 681.042969 497.730469 671.535156 C 497.886719 670.261719 499.058594 663.234375 497.894531 662.445312 C 496.820312 661.722656 493.070312 664.570312 491.480469 666.503906 C 486.511719 672.535156 487.394531 683.132812 488.773438 690.746094 C 490.226562 698.832031 490.890625 694.9375 487.90625 703.769531 C 479.738281 727.992188 474.859375 736.542969 475.34375 735.601562 C 469.660156 746.882812 469.683594 741.386719 461.238281 746.9375 C 463.40625 739.179688 467.574219 730.144531 469.027344 726.339844 C 474.21875 712.820312 487.101562 637.863281 502.988281 640.460938 Z M 279.191406 640.347656 C 279.097656 640.410156 279.097656 640.410156 279.191406 640.347656 Z M 506.960938 630.917969 C 506.992188 631.011719 506.992188 631.015625 506.960938 630.917969 Z M 277.648438 625.058594 C 277.613281 625.21875 277.613281 625.21875 277.648438 625.058594 Z M 254.734375 624.765625 C 254.53125 624.90625 254.574219 624.863281 254.734375 624.765625 Z M 255.195312 624.515625 C 254.980469 624.589844 255.03125 624.570312 255.195312 624.515625 Z M 257.414062 624.429688 C 257.59375 624.460938 257.628906 624.472656 257.414062 624.429688 Z M 256.050781 624.316406 C 255.867188 624.332031 255.914062 624.324219 256.050781 624.316406 Z M 268.613281 623.648438 C 268.59375 623.765625 268.582031 623.808594 268.613281 623.648438 Z M 269.6875 620.566406 C 269.601562 620.757812 269.554688 620.832031 269.6875 620.566406 Z M 273.628906 618.242188 C 277.050781 619.085938 279.25 623.746094 276.378906 628.035156 C 275.574219 629.242188 273.6875 631.152344 272.058594 631.789062 C 270 632.402344 268.824219 630.886719 267.886719 628.949219 C 268.4375 628.410156 267.824219 617.355469 273.628906 618.242188 Z M 507.863281 617.613281 C 507.832031 617.769531 507.824219 617.804688 507.863281 617.613281 Z M 283.046875 610.089844 C 283.054688 610.253906 283.058594 610.351562 283.046875 610.089844 Z M 289.25 606.417969 C 289.113281 606.425781 289.113281 606.425781 289.25 606.417969 Z M 514.472656 605.390625 C 514.429688 605.445312 514.417969 605.457031 514.472656 605.390625 Z M 518.414062 600.824219 C 518.441406 600.792969 516.53125 610.589844 511.851562 608.558594 C 513.734375 606.042969 516.046875 603.773438 518.414062 600.824219 Z M 299.105469 599.492188 C 298.859375 599.578125 298.894531 599.5625 299.105469 599.492188 Z M 280.410156 599.070312 C 280.757812 599.972656 282.574219 604.925781 282.085938 604.535156 C 280.402344 602.957031 279.929688 600.863281 280.410156 599.070312 Z M 301.667969 597.617188 C 301.679688 597.617188 301.523438 597.777344 301.667969 597.617188 Z M 310.75 596.785156 C 310.671875 596.789062 310.671875 596.789062 310.75 596.785156 Z M 298.347656 594.210938 C 298.421875 594.273438 298.449219 594.304688 298.347656 594.210938 Z M 297.40625 593.136719 C 297.488281 593.253906 297.503906 593.277344 297.40625 593.136719 Z M 315.5 590.933594 C 315.476562 591.042969 315.472656 591.054688 315.5 590.933594 Z M 301.890625 589.660156 C 302.023438 589.773438 302 589.757812 301.890625 589.660156 Z M 297.585938 589.464844 C 297.527344 589.582031 297.527344 589.582031 297.585938 589.464844 Z M 296.355469 588.265625 C 291.953125 595.964844 303.371094 598.125 301.660156 597.617188 C 300.402344 599.144531 298.546875 600.015625 296.261719 599.882812 C 295.140625 599.828125 295.070312 601.492188 296.152344 601.550781 C 298.695312 601.695312 300.875 600.878906 302.625 599.039062 C 304.03125 597.558594 302.386719 598.105469 306.539062 598.429688 C 309.042969 598.625 309.070312 598.339844 308.605469 598.671875 C 302.410156 602.792969 291.125 608.378906 284.15625 605.738281 C 282.363281 596.109375 279.816406 598.128906 282.78125 594.652344 C 286.246094 590.902344 291.832031 588.742188 296.355469 588.265625 Z M 297.894531 588.929688 C 298.371094 588.105469 298.34375 588.214844 299.328125 588.40625 C 303.199219 589.367188 304.164062 592.722656 302.613281 596.140625 C 298.238281 595.011719 295.488281 592.710938 297.894531 588.929688 Z M 346.582031 585.589844 C 346.492188 585.589844 346.488281 585.589844 346.582031 585.589844 Z M 310.535156 585.054688 C 310.632812 585.078125 310.609375 585.070312 310.535156 585.054688 Z M 519.5625 584.804688 C 519.90625 584.824219 520.296875 585.824219 520.433594 586.1875 C 519.613281 601.558594 518.347656 596.757812 510.175781 608.015625 C 511.046875 604.835938 516.6875 585.601562 519.5625 584.804688 Z M 519.722656 584.789062 C 519.644531 584.789062 519.6875 584.789062 519.722656 584.789062 Z M 308.625 584.808594 C 315.824219 585.15625 318.621094 590.523438 311.15625 596.75 C 309.375 596.917969 306.671875 596.863281 304.289062 596.484375 C 306.0625 592.292969 304.375 587.941406 299.996094 586.851562 C 302.578125 585.230469 305.570312 584.664062 308.625 584.808594 Z M 519.429688 584.765625 C 519.535156 584.777344 519.652344 584.808594 519.429688 584.765625 Z M 520.457031 574.132812 C 520.46875 574.292969 520.46875 574.292969 520.457031 574.132812 Z M 261.066406 572.617188 C 261.039062 572.78125 261.042969 572.746094 261.066406 572.617188 Z M 272.652344 568.113281 C 272.792969 568.234375 272.808594 568.253906 272.652344 568.113281 Z M 263.1875 567.472656 C 263.121094 567.550781 263.101562 567.574219 263.1875 567.472656 Z M 264.105469 566.636719 C 263.9375 566.746094 263.972656 566.71875 264.105469 566.636719 Z M 268.050781 566.050781 C 273.058594 567.214844 274.121094 569.472656 274.589844 571.605469 C 275.847656 577.414062 271.925781 578.757812 278.007812 593.320312 C 279.898438 597.835938 279.492188 595.925781 278.851562 598.421875 C 277.960938 601.855469 279.324219 605.199219 282.671875 606.90625 C 284.230469 616.511719 281.527344 626.769531 280.761719 636.734375 C 280.578125 639.132812 280.972656 638.019531 279.609375 638.320312 C 277.4375 638.796875 274.824219 642.785156 270.035156 644.570312 C 258.0625 648.519531 250.34375 630.710938 253.679688 625.835938 C 256.285156 622.015625 261.625 626.382812 265.914062 628.613281 C 271.03125 641.710938 284.660156 625.507812 276.910156 618.191406 C 273.105469 614.609375 267.59375 616.515625 266.636719 625.53125 C 264.554688 618.078125 265.367188 615.089844 262.308594 597.480469 C 260.496094 586.898438 257.523438 564.082031 268.050781 566.050781 Z M 366.835938 562.085938 C 366.714844 562.167969 366.703125 562.171875 366.835938 562.085938 Z M 527.210938 560.492188 C 529.460938 558.296875 528.058594 612.339844 514.171875 628.457031 C 503.71875 639.992188 505.871094 624.160156 509.867188 609.164062 C 510.253906 610.050781 517.726562 615.613281 520.921875 597.164062 C 523.082031 593.265625 523.242188 590.453125 522.285156 586.574219 C 521.929688 585.144531 523.125 569.789062 520.808594 569.957031 C 522.8125 566.414062 524.472656 563.238281 527.210938 560.492188 Z M 371.042969 558.464844 C 370.996094 558.515625 370.992188 558.523438 371.042969 558.464844 Z M 371.144531 558.347656 C 371.007812 558.5 371.050781 558.445312 371.144531 558.347656 Z M 417.914062 557.675781 C 417.773438 557.691406 417.746094 557.6875 417.914062 557.675781 Z M 426.816406 555.683594 C 426.71875 555.695312 426.722656 555.695312 426.816406 555.683594 Z M 365.292969 555.121094 C 365.1875 555.128906 365.1875 555.128906 365.292969 555.121094 Z M 483.203125 531.78125 C 483.121094 531.871094 483.140625 531.847656 483.203125 531.78125 Z M 503.5 509.71875 C 514.992188 503.65625 518.0625 503.058594 529.722656 488.027344 C 528.335938 501.953125 534.308594 515.082031 533.925781 528.523438 C 533.46875 545.214844 518.644531 550.71875 515.25 565.308594 C 514.152344 570.015625 515.621094 574.777344 516.179688 575.308594 C 511.0625 583.613281 509.539062 595.148438 506.007812 604.667969 C 504.203125 609.535156 497.914062 622.164062 493.523438 635.960938 C 479.523438 679.890625 473.144531 705.695312 414.71875 710.800781 C 407.433594 711.457031 401.480469 713.769531 398.4375 710.363281 C 398.035156 709.914062 400.386719 709.5 401.855469 707.699219 C 402.683594 706.6875 402.238281 705.042969 399.132812 705.183594 C 394.070312 705.425781 394.980469 707.535156 395.886719 709.484375 C 388.820312 712.738281 377.992188 712.03125 370.164062 711.214844 C 341.523438 708.246094 339.761719 701.125 319.503906 681.066406 C 309.722656 671.375 288.414062 663.710938 283.652344 650.722656 C 282.933594 648.484375 283.386719 643.574219 282.269531 640.285156 C 282.378906 632.414062 284.363281 624.308594 284.769531 615.535156 C 285.433594 600.914062 280.222656 611.855469 296.230469 606.667969 C 300.738281 605.203125 307.527344 601.789062 311.851562 598.359375 C 329.851562 596.738281 324.4375 580.292969 330.328125 571.054688 C 335.667969 562.671875 359.203125 552.855469 372.992188 555.523438 C 372.886719 555.503906 373.160156 555.425781 372.199219 556.925781 C 366.703125 565.628906 349.46875 568.234375 343.507812 576.894531 C 341.761719 579.445312 339.378906 586.785156 345.429688 587.265625 C 356.335938 588.175781 374.449219 569.488281 395.882812 561.957031 C 405.152344 558.804688 413.886719 557.644531 423.605469 557.4375 C 440.0625 557.042969 441.667969 550.289062 451.992188 543.316406 C 462.867188 536.300781 467.597656 540.308594 476.8125 537.769531 C 487.566406 534.785156 487.046875 525.429688 490.722656 519.503906 C 493.21875 515.519531 499.386719 511.890625 503.5 509.71875 Z M 531.847656 485.074219 C 531.824219 485.167969 531.824219 485.175781 531.847656 485.074219 Z M 534.398438 474.144531 C 533.371094 475.839844 532.539062 477.417969 531.640625 479.738281 C 530.269531 483.28125 530.824219 483.636719 529.730469 485.21875 C 510.605469 513.046875 493.523438 504.878906 486.804688 524.160156 C 481.285156 540.011719 473.085938 535.980469 461.667969 537.554688 C 450.816406 539.046875 444.136719 548.96875 436.421875 553.089844 C 422.097656 560.699219 410.535156 546.300781 365.027344 577.082031 C 367.824219 575.242188 347.085938 589.269531 343.605469 584.734375 C 342.664062 583.082031 343.308594 578.601562 347.480469 574.992188 C 351.335938 571.632812 358.488281 568.800781 364.253906 565.613281 C 373.277344 560.613281 376.164062 554.59375 374.417969 554.15625 C 360.265625 550.613281 334.527344 560.707031 328.394531 571.011719 C 322.957031 580.121094 327.75 593.707031 314.070312 596.347656 C 325.046875 584.925781 305.851562 578.742188 297.707031 586.550781 C 293.261719 586.457031 284.632812 589.019531 280.484375 594.886719 C 278.804688 590.925781 277.753906 588.597656 276.785156 584.722656 C 274.835938 576.882812 279.035156 570.410156 272.9375 566.277344 C 271.71875 565.457031 268.667969 564.074219 266.128906 564.253906 C 253.375 565.175781 261.167969 598.054688 262.269531 606.328125 C 262.714844 609.671875 263.011719 617.980469 264.78125 625.058594 C 265.203125 626.730469 265.804688 626.570312 262.523438 624.757812 C 244.078125 614.511719 250.664062 645.175781 265.355469 646.777344 C 272.078125 647.546875 276.738281 642.046875 279.246094 640.3125 C 280.847656 639.3125 280.535156 640.335938 280.667969 643.203125 C 280.988281 650.175781 281.71875 644.425781 281.832031 658.230469 C 282.050781 682.027344 303.441406 693.378906 311.152344 715.265625 C 312.914062 720.503906 310.1875 710.519531 298.550781 698.492188 C 298.183594 698.113281 297.679688 698.144531 297.375 698.417969 C 297.003906 698.738281 296.984375 698.828125 297.375 702.441406 C 299.441406 721.128906 312.453125 741.710938 312.058594 760.890625 C 303.378906 790.289062 278.039062 821.910156 279.265625 830.894531 C 277.613281 832.160156 277.058594 832.082031 277.011719 832.78125 C 276.894531 834.8125 303.464844 846.355469 306.484375 847.605469 C 320.703125 853.480469 330.300781 856.292969 333.933594 857.726562 C 336.597656 858.785156 339.929688 864.695312 348.8125 866.785156 C 351.421875 867.394531 350.808594 866.953125 351.957031 867.558594 C 388.320312 886.921875 452.109375 845.480469 502.679688 835.003906 C 530.464844 829.257812 542.007812 831.371094 552.148438 818.777344 C 572.085938 815.125 567.710938 814.164062 569.804688 802.574219 C 570.527344 799.363281 572.972656 797.136719 575.382812 794.800781 C 579.390625 790.90625 586.734375 779.921875 581.347656 776.578125 C 580.050781 775.761719 580.652344 776.75 580.066406 775.09375 C 579.765625 774.25 578.214844 774.609375 578.535156 775.726562 C 574.957031 775.304688 569.300781 776.363281 565.40625 776.902344 C 553.449219 778.582031 517.628906 776.273438 518.390625 771.207031 C 525.8125 771.449219 528.113281 774.988281 529.222656 774.441406 C 530.335938 773.871094 529.160156 771.128906 528.5625 770.039062 C 525.753906 764.882812 517.179688 759.324219 514.359375 765.273438 C 511.234375 765.203125 512.300781 766.496094 513.894531 763.09375 C 516.617188 757.246094 507.875 744.621094 496.125 711.027344 C 496.160156 711.128906 496.023438 710.734375 496.070312 710.867188 C 491.839844 698.636719 492.578125 699.695312 493.070312 697.9375 C 496.292969 686.453125 494.703125 688.671875 497.453125 681.796875 C 501.085938 672.710938 508.128906 654.410156 507.382812 644.738281 C 506.789062 636.8125 498.5 635.5625 491.664062 647.492188 C 504.300781 607.59375 504.667969 617.011719 511.476562 592.214844 C 513.445312 585.03125 515.480469 578.203125 520.046875 572.847656 C 520.796875 572.03125 520.59375 582.308594 520.554688 583.414062 C 516.472656 580.640625 511.398438 597.949219 509.875 603.042969 C 507.226562 611.875 500.527344 636.164062 509.429688 633.867188 C 525.121094 629.726562 530.523438 581.445312 529.472656 564.253906 C 528.996094 556.292969 528.171875 557.1875 525.703125 559.644531 C 522.25 563.050781 519.898438 568.734375 517.039062 572.910156 C 513.828125 561.457031 525.84375 551.683594 532.082031 541.269531 C 541.734375 525.101562 528.238281 504.285156 531.851562 485.050781 C 534.4375 481.097656 535.460938 477.988281 535.921875 474.667969 C 536.03125 473.863281 534.828125 473.417969 534.398438 474.144531 " fill-opacity="1" fill-rule="nonzero"/></g></svg>